<?xml version="1.0" encoding="UTF-8" standalone="no"?>
<!-- Created with Inkscape (http://www.inkscape.org/) -->

<svg
   xmlns:dc="http://purl.org/dc/elements/1.1/"
   xmlns:cc="http://creativecommons.org/ns#"
   xmlns:rdf="http://www.w3.org/1999/02/22-rdf-syntax-ns#"
   xmlns:svg="http://www.w3.org/2000/svg"
   xmlns="http://www.w3.org/2000/svg"
   xmlns:sodipodi="http://sodipodi.sourceforge.net/DTD/sodipodi-0.dtd"
   xmlns:inkscape="http://www.inkscape.org/namespaces/inkscape"
   width="184.13976mm"
   height="2.1872222mm"
   viewBox="0 0 652.4637 7.75"
   id="svg4951"
   version="1.1"
   inkscape:version="0.91 r13725"
   sodipodi:docname="deco_stripes_vert_nobkg_white.svg">
  <defs
     id="defs4953" />
  <sodipodi:namedview
     id="base"
     pagecolor="#ffffff"
     bordercolor="#666666"
     borderopacity="1.0"
     inkscape:pageopacity="0.0"
     inkscape:pageshadow="2"
     inkscape:zoom="0.7"
     inkscape:cx="607.51967"
     inkscape:cy="328.14199"
     inkscape:document-units="px"
     inkscape:current-layer="layer1"
     showgrid="false"
     fit-margin-top="0"
     fit-margin-left="0"
     fit-margin-right="0"
     fit-margin-bottom="0"
     inkscape:window-width="1600"
     inkscape:window-height="853"
     inkscape:window-x="-2"
     inkscape:window-y="-3"
     inkscape:window-maximized="1" />
  <metadata
     id="metadata4956">
    <rdf:RDF>
      <cc:Work
         rdf:about="">
        <dc:format>image/svg+xml</dc:format>
        <dc:type
           rdf:resource="http://purl.org/dc/dcmitype/StillImage" />
        <dc:title></dc:title>
      </cc:Work>
    </rdf:RDF>
  </metadata>
  <g
     inkscape:label="Layer 1"
     inkscape:groupmode="layer"
     id="layer1"
     transform="translate(911.94617,-499.91577)">
    <path
       inkscape:connector-curvature="0"
       id="path38"
       style="fill:none;stroke:#ffffff;stroke-width:1.44875002;stroke-linecap:butt;stroke-linejoin:miter;stroke-miterlimit:4;stroke-dasharray:none;stroke-opacity:1"
       d="m -911.22179,499.91577 0,7.75 m 3.875,-7.75 0,7.75 m 3.875,-7.75 0,7.75 m 3.875,-7.75 0,7.75 m 3.875,-7.75 0,7.75 m 3.875,-7.75 0,7.75 m 3.875,-7.75 0,7.75 m 3.87625,-7.75 0,7.75 m 3.875,-7.75 0,7.75 m 3.875,-7.75 0,7.75 m 3.875,-7.75 0,7.75 m 3.875,-7.75 0,7.75 m 3.875,-7.75 0,7.75 m 3.875,-7.75 0,7.75 m 3.875,-7.75 0,7.75 m 3.875,-7.75 0,7.75 m 3.875,-7.75 0,7.75 m 3.875,-7.75 0,7.75 m 3.875,-7.75 0,7.75 m 3.875,-7.75 0,7.75 m 3.875,-7.75 0,7.75 m 3.87625,-7.75 0,7.75 m 3.875,-7.75 0,7.75 m 3.875,-7.75 0,7.75 m 3.875,-7.75 0,7.75 m 3.875,-7.75 0,7.75 m 3.87501,-7.75 0,7.75 m 3.875,-7.75 0,7.75 m 3.875,-7.75 0,7.75 m 3.875,-7.75 0,7.75 m 3.875,-7.75 0,7.75 m 3.875,-7.75 0,7.75 m 3.875,-7.75 0,7.75 m 3.875,-7.75 0,7.75 m 3.875,-7.75 0,7.75 m 3.87625,-7.75 0,7.75 m 3.875,-7.75 0,7.75 m 3.875,-7.75 0,7.75 m 3.875,-7.75 0,7.75 m 3.875,-7.75 0,7.75 m 3.875,-7.75 0,7.75 m 3.875,-7.75 0,7.75 m 3.875,-7.75 0,7.75 m 3.875,-7.75 0,7.75 m 3.875,-7.75 0,7.75 m 3.875,-7.75 0,7.75 m 3.875,-7.75 0,7.75 m 3.875,-7.75 0,7.75 m 3.875,-7.75 0,7.75 m 3.87625,-7.75 0,7.75 m 3.875,-7.75 0,7.75 m 3.875,-7.75 0,7.75 m 3.875,-7.75 0,7.75 m 3.875,-7.75 0,7.75 m 3.875,-7.75 0,7.75 m 3.875,-7.75 0,7.75 m 3.875,-7.75 0,7.75 m 3.875,-7.75 0,7.75 m 3.875,-7.75 0,7.75 m 3.875,-7.75 0,7.75 m 3.875,-7.75 0,7.75 m 3.875,-7.75 0,7.75 m 3.87625,-7.75 0,7.75 m 3.875,-7.75 0,7.75 m 3.875,-7.75 0,7.75 m 3.875,-7.75 0,7.75 m 3.875,-7.75 0,7.75 m 3.875,-7.75 0,7.75 m 3.875,-7.75 0,7.75 m 3.875,-7.75 0,7.75 m 3.875,-7.75 0,7.75 m 3.875,-7.75 0,7.75 m 3.875,-7.75 0,7.75 m 3.875,-7.75 0,7.75 m 3.875,-7.75 0,7.75 m 3.875,-7.75 0,7.75 m 3.87625,-7.75 0,7.75 m 3.875,-7.75 0,7.75 m 3.875,-7.75 0,7.75 m 3.875,-7.75 0,7.75 m 3.875,-7.75 0,7.75 m 3.875,-7.75 0,7.75 m 3.875,-7.75 0,7.75 m 3.875,-7.75 0,7.75 m 3.875,-7.75 0,7.75 m 3.875,-7.75 0,7.75 m 3.875,-7.75 0,7.75 m 3.875,-7.75 0,7.75 m 3.875,-7.75 0,7.75 m 3.875,-7.75 0,7.75 m 3.87625,-7.75 0,7.75 m 3.875,-7.75 0,7.75 m 3.875,-7.75 0,7.75 m 3.875,-7.75 0,7.75 m 3.875,-7.75 0,7.75 m 3.875,-7.75 0,7.75 m 3.875,-7.75 0,7.75 m 3.875,-7.75 0,7.75 m 3.875,-7.75 0,7.75 m 3.875,-7.75 0,7.75 m 3.875,-7.75 0,7.75 m 3.875,-7.75 0,7.75 m 3.875,-7.75 0,7.75 m 3.87625,-7.75 0,7.75 m 3.875,-7.75 0,7.75 m 3.875,-7.75 0,7.75 m 3.875,-7.75 0,7.75 m 3.875,-7.75 0,7.75 m 3.875,-7.75 0,7.75 m 3.875,-7.75 0,7.75 m 3.875,-7.75 0,7.75 m 3.875,-7.75 0,7.75 m 3.875,-7.75 0,7.75 m 3.875,-7.75 0,7.75 m 3.875,-7.75 0,7.75 m 3.87495,-7.75 0,7.75 m 3.875,-7.75 0,7.75 m 3.8763,-7.75 0,7.75 m 3.875,-7.75 0,7.75 m 3.875,-7.75 0,7.75 m 3.875,-7.75 0,7.75 m 3.875,-7.75 0,7.75 m 3.875,-7.75 0,7.75 m 3.875,-7.75 0,7.75 m 3.875,-7.75 0,7.75 m 3.875,-7.75 0,7.75 m 3.875,-7.75 0,7.75 m 3.875,-7.75 0,7.75 m 3.875,-7.75 0,7.75 m 3.875,-7.75 0,7.75 m 3.875,-7.75 0,7.75 m 3.8762,-7.75 0,7.75 m 3.875,-7.75 0,7.75 m 3.875,-7.75 0,7.75 m 3.875,-7.75 0,7.75 m 3.875,-7.75 0,7.75 m 3.875,-7.75 0,7.75 m 3.875,-7.75 0,7.75 m 3.875,-7.75 0,7.75 m 3.875,-7.75 0,7.75 m 3.875,-7.75 0,7.75 m 3.875,-7.75 0,7.75 m 3.875,-7.75 0,7.75 m 3.875,-7.75 0,7.75 m 3.875,-7.75 0,7.75 m 3.8763,-7.75 0,7.75 m 3.875,-7.75 0,7.75 m 3.875,-7.75 0,7.75 m 3.875,-7.75 0,7.75 m 3.875,-7.75 0,7.75 m 3.875,-7.75 0,7.75 m 3.875,-7.75 0,7.75 m 3.875,-7.75 0,7.75 m 3.875,-7.75 0,7.75 m 3.875,-7.75 0,7.75 m 3.875,-7.75 0,7.75 m 3.875,-7.75 0,7.75 m 3.875,-7.75 0,7.75 m 3.8762,-7.75 0,7.75 m 3.875,-7.75 0,7.75 m 3.875,-7.75 0,7.75 m 3.875,-7.75 0,7.75 m 3.875,-7.75 0,7.75 m 3.875,-7.75 0,7.75 m 3.875,-7.75 0,7.75 m 3.875,-7.75 0,7.75 m 3.875,-7.75 0,7.75 m 3.875,-7.75 0,7.75 m 3.875,-7.75 0,7.75" />
  </g>
</svg>
