<?xml version="1.0" encoding="UTF-8" standalone="no"?>
<!-- Created with Inkscape (http://www.inkscape.org/) -->

<svg
   xmlns:dc="http://purl.org/dc/elements/1.1/"
   xmlns:cc="http://creativecommons.org/ns#"
   xmlns:rdf="http://www.w3.org/1999/02/22-rdf-syntax-ns#"
   xmlns:svg="http://www.w3.org/2000/svg"
   xmlns="http://www.w3.org/2000/svg"
   xmlns:sodipodi="http://sodipodi.sourceforge.net/DTD/sodipodi-0.dtd"
   xmlns:inkscape="http://www.inkscape.org/namespaces/inkscape"
   width="91.949379mm"
   height="5.1446643mm"
   viewBox="0 0 325.80484 18.229125"
   id="svg5798"
   version="1.1"
   inkscape:version="0.91 r13725"
   sodipodi:docname="polimitestobianconologo.svg">
  <defs
     id="defs5800">
    <clipPath
       clipPathUnits="userSpaceOnUse"
       id="clipPath976">
      <path
         d="m 0,0 595.276,0 0,841.89 L 0,841.89 0,0 Z"
         id="path978"
         inkscape:connector-curvature="0" />
    </clipPath>
    <clipPath
       clipPathUnits="userSpaceOnUse"
       id="clipPath960">
      <path
         d="m 0,0 595.276,0 0,841.89 L 0,841.89 0,0 Z"
         id="path962"
         inkscape:connector-curvature="0" />
    </clipPath>
    <clipPath
       clipPathUnits="userSpaceOnUse"
       id="clipPath908">
      <path
         d="m 0,0 595.276,0 0,841.89 L 0,841.89 0,0 Z"
         id="path910"
         inkscape:connector-curvature="0" />
    </clipPath>
    <clipPath
       clipPathUnits="userSpaceOnUse"
       id="clipPath864">
      <path
         d="m 0,0 595.276,0 0,841.89 L 0,841.89 0,0 Z"
         id="path866"
         inkscape:connector-curvature="0" />
    </clipPath>
    <clipPath
       clipPathUnits="userSpaceOnUse"
       id="clipPath836">
      <path
         d="m 0,0 595.276,0 0,841.89 L 0,841.89 0,0 Z"
         id="path838"
         inkscape:connector-curvature="0" />
    </clipPath>
    <clipPath
       clipPathUnits="userSpaceOnUse"
       id="clipPath812">
      <path
         d="m 0,0 595.276,0 0,841.89 L 0,841.89 0,0 Z"
         id="path814"
         inkscape:connector-curvature="0" />
    </clipPath>
    <clipPath
       clipPathUnits="userSpaceOnUse"
       id="clipPath1260">
      <path
         d="m 0,0 595.276,0 0,841.89 L 0,841.89 0,0 Z"
         id="path1262"
         inkscape:connector-curvature="0" />
    </clipPath>
    <clipPath
       clipPathUnits="userSpaceOnUse"
       id="clipPath1136">
      <path
         d="m 0,0 595.276,0 0,841.89 L 0,841.89 0,0 Z"
         id="path1138"
         inkscape:connector-curvature="0" />
    </clipPath>
  </defs>
  <sodipodi:namedview
     id="base"
     pagecolor="#ffffff"
     bordercolor="#666666"
     borderopacity="1.0"
     inkscape:pageopacity="0.0"
     inkscape:pageshadow="2"
     inkscape:zoom="2.8"
     inkscape:cx="47.822955"
     inkscape:cy="50.009066"
     inkscape:document-units="px"
     inkscape:current-layer="layer1"
     showgrid="false"
     fit-margin-top="0"
     fit-margin-left="0"
     fit-margin-right="0"
     fit-margin-bottom="0"
     inkscape:window-width="1920"
     inkscape:window-height="1033"
     inkscape:window-x="1598"
     inkscape:window-y="-3"
     inkscape:window-maximized="1" />
  <metadata
     id="metadata5803">
    <rdf:RDF>
      <cc:Work
         rdf:about="">
        <dc:format>image/svg+xml</dc:format>
        <dc:type
           rdf:resource="http://purl.org/dc/dcmitype/StillImage" />
        <dc:title></dc:title>
      </cc:Work>
    </rdf:RDF>
  </metadata>
  <g
     inkscape:label="Layer 1"
     inkscape:groupmode="layer"
     id="layer1"
     transform="translate(-421.338,-593.8997)">
    <g
       transform="matrix(1.25,0,0,-1.25,170.84397,919.05232)"
       id="g1256">
      <g
         id="g1258"
         clip-path="url(#clipPath1260)">
        <g
           id="g1264"
           transform="translate(200.3952,246.1068)">
          <path
             d="m 0,0 c 0,-0.196 0.157,-0.372 0.372,-0.372 l 1.801,0 c 0.196,0 0.372,0.176 0.372,0.372 l 0,4.6 2.447,0 c 2.388,0 4.365,1.977 4.365,4.405 0,2.369 -1.977,4.326 -4.385,4.326 l -4.6,0 C 0.157,13.331 0,13.155 0,12.959 L 0,0 Z m 2.545,6.989 0,3.934 2.271,0 c 1.096,0 2.016,-0.822 2.016,-1.899 0,-1.154 -0.92,-2.035 -2.016,-2.035 l -2.271,0 z m 8.3,-0.529 c 0,-3.915 3.113,-7.028 7.028,-7.028 3.915,0 7.047,3.113 7.047,7.028 0,3.915 -3.132,7.067 -7.047,7.067 -3.915,0 -7.028,-3.152 -7.028,-7.067 m 2.545,0 c 0,2.467 2.016,4.522 4.483,4.522 2.466,0 4.502,-2.055 4.502,-4.522 0,-2.467 -2.036,-4.483 -4.502,-4.483 -2.467,0 -4.483,2.016 -4.483,4.483 M 26.975,0 c 0,-0.196 0.157,-0.372 0.372,-0.372 l 7.165,0 c 0.215,0 0.372,0.176 0.372,0.372 l 0,1.605 c 0,0.196 -0.157,0.372 -0.372,0.372 l -4.992,0 0,10.982 c 0,0.196 -0.176,0.372 -0.372,0.372 l -1.801,0 c -0.215,0 -0.372,-0.176 -0.372,-0.372 L 26.975,0 Z m 10.473,0 c 0,-0.196 0.176,-0.372 0.372,-0.372 l 1.821,0 c 0.195,0 0.372,0.176 0.372,0.372 l 0,12.959 c 0,0.196 -0.177,0.372 -0.372,0.372 l -1.821,0 c -0.196,0 -0.372,-0.176 -0.372,-0.372 L 37.448,0 Z m 8.398,0 c 0,-0.196 0.176,-0.372 0.372,-0.372 l 1.82,0 c 0.196,0 0.372,0.176 0.372,0.372 l 0,10.982 2.995,0 c 0.216,0 0.372,0.176 0.372,0.372 l 0,1.605 c 0,0.196 -0.156,0.372 -0.372,0.372 l -8.554,0 c -0.216,0 -0.372,-0.176 -0.372,-0.372 l 0,-1.605 c 0,-0.196 0.156,-0.372 0.372,-0.372 l 2.995,0 0,-10.982 z m 8.163,0 c 0,-0.196 0.157,-0.372 0.372,-0.372 l 7.967,0 c 0.216,0 0.372,0.176 0.372,0.372 l 0,1.605 c 0,0.196 -0.156,0.372 -0.372,0.372 l -5.794,0 0,3.426 4.835,0 c 0.196,0 0.372,0.157 0.372,0.372 l 0,1.625 c 0,0.195 -0.176,0.372 -0.372,0.372 l -4.835,0 0,3.21 5.794,0 c 0.216,0 0.372,0.176 0.372,0.372 l 0,1.605 c 0,0.196 -0.156,0.372 -0.372,0.372 l -7.967,0 c -0.215,0 -0.372,-0.176 -0.372,-0.372 L 54.009,0 Z m 10.708,6.46 c 0,-3.915 3.152,-7.028 7.067,-7.028 1.742,0 3.426,0.607 4.757,1.899 0.137,0.137 0.176,0.392 0.019,0.529 l -1.213,1.253 c -0.118,0.117 -0.333,0.137 -0.49,0 -0.822,-0.666 -1.82,-1.116 -2.995,-1.116 -2.506,0 -4.385,2.075 -4.385,4.522 0,2.466 1.86,4.561 4.365,4.561 1.097,0 2.193,-0.431 3.015,-1.155 0.157,-0.157 0.353,-0.157 0.49,0 l 1.194,1.233 c 0.156,0.157 0.156,0.392 -0.02,0.548 -1.331,1.195 -2.76,1.821 -4.737,1.821 -3.915,0 -7.067,-3.152 -7.067,-7.067 M 79.144,0 c 0,-0.196 0.176,-0.372 0.372,-0.372 l 1.781,0 c 0.216,0 0.372,0.176 0.372,0.372 l 0,8.418 0.02,0 8.183,-8.986 0.47,0 c 0.195,0 0.371,0.157 0.371,0.353 l 0,13.174 c 0,0.196 -0.176,0.372 -0.371,0.372 l -1.801,0 c -0.216,0 -0.372,-0.176 -0.372,-0.372 l 0,-8.085 -0.02,0 -8.144,8.653 -0.489,0 c -0.196,0 -0.372,-0.157 -0.372,-0.352 L 79.144,0 Z M 94.08,0 c 0,-0.196 0.177,-0.372 0.372,-0.372 l 1.821,0 c 0.196,0 0.372,0.176 0.372,0.372 l 0,12.959 c 0,0.196 -0.176,0.372 -0.372,0.372 l -1.821,0 c -0.195,0 -0.372,-0.176 -0.372,-0.372 L 94.08,0 Z m 5.129,6.46 c 0,-3.915 3.152,-7.028 7.067,-7.028 1.742,0 3.426,0.607 4.757,1.899 0.137,0.137 0.176,0.392 0.019,0.529 l -1.213,1.253 c -0.118,0.117 -0.333,0.137 -0.49,0 -0.822,-0.666 -1.82,-1.116 -2.995,-1.116 -2.505,0 -4.385,2.075 -4.385,4.522 0,2.466 1.86,4.561 4.366,4.561 1.096,0 2.192,-0.431 3.014,-1.155 0.157,-0.157 0.353,-0.157 0.49,0 l 1.194,1.233 c 0.156,0.157 0.156,0.392 -0.02,0.548 -1.331,1.195 -2.76,1.821 -4.737,1.821 -3.915,0 -7.067,-3.152 -7.067,-7.067 m 13.644,0 c 0,-3.915 3.113,-7.028 7.028,-7.028 3.915,0 7.047,3.113 7.047,7.028 0,3.915 -3.132,7.067 -7.047,7.067 -3.915,0 -7.028,-3.152 -7.028,-7.067 m 2.545,0 c 0,2.467 2.016,4.522 4.483,4.522 2.467,0 4.502,-2.055 4.502,-4.522 0,-2.467 -2.035,-4.483 -4.502,-4.483 -2.467,0 -4.483,2.016 -4.483,4.483"
             style="fill:#ffffff;fill-opacity:1;fill-rule:nonzero;stroke:none"
             id="path1266"
             inkscape:connector-curvature="0" />
        </g>
        <g
           id="g1268"
           transform="translate(334.7094,246.5821)">
          <path
             d="m 0,0 c -0.04,-0.276 0.1,-0.453 0.38,-0.453 l 1.302,0 c 0.16,0 0.34,0.138 0.36,0.276 l 1.441,8.809 0.081,0 3.623,-9.066 c 0.04,-0.118 0.18,-0.216 0.341,-0.216 l 0.36,0 c 0.18,0 0.3,0.098 0.34,0.216 l 3.604,9.066 0.06,0 1.481,-8.809 c 0.04,-0.138 0.201,-0.276 0.381,-0.276 l 1.301,0 c 0.28,0 0.42,0.177 0.36,0.453 l -2.462,13.244 c -0.04,0.158 -0.2,0.296 -0.36,0.296 l -0.321,0 c -0.14,0 -0.3,-0.099 -0.34,-0.217 L 7.768,3.252 l -0.08,0 -4.184,10.071 C 3.463,13.441 3.283,13.54 3.163,13.54 l -0.32,0 c -0.16,0 -0.32,-0.138 -0.361,-0.296 L 0,0 Z m 18.358,-0.079 c 0,-0.197 0.18,-0.374 0.381,-0.374 l 1.321,0 c 0.2,0 0.38,0.177 0.38,0.374 l 0,13.047 c 0,0.197 -0.18,0.375 -0.38,0.375 l -1.321,0 c -0.201,0 -0.381,-0.178 -0.381,-0.375 l 0,-13.047 z m 5.966,0 c 0,-0.197 0.16,-0.374 0.38,-0.374 l 7.127,0 c 0.221,0 0.381,0.177 0.381,0.374 l 0,1.084 c 0,0.197 -0.16,0.375 -0.381,0.375 l -5.425,0 0,11.588 c 0,0.197 -0.18,0.375 -0.38,0.375 l -1.322,0 c -0.22,0 -0.38,-0.178 -0.38,-0.375 l 0,-13.047 z m 9.449,-0.374 1.261,0 c 0.241,0 0.401,0.157 0.461,0.295 0.4,0.907 0.821,1.794 1.221,2.7 l 6.547,0 1.241,-2.7 c 0.08,-0.177 0.22,-0.295 0.46,-0.295 l 1.262,0 c 0.3,0 0.46,0.256 0.34,0.512 L 40.46,13.323 c -0.06,0.118 -0.24,0.217 -0.34,0.217 l -0.201,0 c -0.1,0 -0.28,-0.099 -0.34,-0.217 L 33.433,0.059 c -0.12,-0.256 0.04,-0.512 0.34,-0.512 m 3.724,4.69 2.442,5.4 0.1,0 2.463,-5.4 -5.005,0 z m 11.071,-4.316 c 0,-0.197 0.18,-0.374 0.38,-0.374 l 1.261,0 c 0.221,0 0.381,0.177 0.381,0.374 l 0,9.598 0.02,0 8.688,-10.169 0.521,0 c 0.2,0 0.38,0.157 0.38,0.354 l 0,13.264 c 0,0.197 -0.18,0.375 -0.38,0.375 l -1.281,0 c -0.22,0 -0.381,-0.178 -0.381,-0.375 l 0,-9.322 -0.02,0 -8.688,9.894 -0.501,0 c -0.2,0 -0.38,-0.158 -0.38,-0.355 l 0,-13.264 z m 14.494,6.504 c 0,-3.942 3.183,-7.075 7.187,-7.075 4.004,0 7.208,3.133 7.208,7.075 0,3.942 -3.204,7.115 -7.208,7.115 -4.004,0 -7.187,-3.173 -7.187,-7.115 m 2.002,0 c 0,2.799 2.342,5.144 5.185,5.144 2.863,0 5.206,-2.345 5.206,-5.144 0,-2.818 -2.343,-5.105 -5.206,-5.105 -2.843,0 -5.185,2.287 -5.185,5.105"
             style="fill:#ffffff;fill-opacity:1;fill-rule:nonzero;stroke:none"
             id="path1270"
             inkscape:connector-curvature="0" />
        </g>
        <g
           id="g1272"
           transform="translate(420.4541,246.1388)">
          <path
             d="m 0,0 7.023,0 c 0.222,0 0.384,0.159 0.384,0.358 l 0,0.854 c 0,0.218 -0.162,0.377 -0.384,0.377 l -2.22,0 0,11.544 c 0,0.198 -0.161,0.377 -0.363,0.377 l -0.989,0 -3.007,-2.682 C 0.363,10.749 0.323,10.59 0.383,10.431 L 0.626,9.735 C 0.686,9.557 0.888,9.517 1.07,9.596 l 1.756,0.874 0,-8.881 -2.826,0 c -0.222,0 -0.383,-0.159 -0.383,-0.377 l 0,-0.854 C -0.383,0.159 -0.222,0 0,0 m 9.687,3.616 c 0,-2.166 1.796,-3.815 4.622,-3.815 2.926,0 4.702,1.649 4.702,3.815 0,1.709 -1.513,2.901 -2.442,3.318 l 0,0.079 c 0.868,0.438 2.079,1.53 2.079,3.06 0,2.186 -1.837,3.636 -4.319,3.636 -2.422,0 -4.279,-1.45 -4.279,-3.636 0,-1.55 1.211,-2.642 2.079,-3.079 l 0,-0.06 C 11.382,6.596 9.687,5.345 9.687,3.616 m 4.662,4.252 c -1.574,0.238 -2.26,1.053 -2.26,2.126 0,1.212 0.989,2.086 2.2,2.086 1.332,0 2.321,-0.874 2.321,-2.086 0,-1.053 -0.707,-1.908 -2.261,-2.126 M 11.786,3.576 c 0,1.053 0.928,2.146 2.563,2.384 1.635,-0.238 2.563,-1.331 2.563,-2.384 0,-1.331 -1.15,-2.165 -2.583,-2.165 -1.332,0 -2.543,0.854 -2.543,2.165 m 9.304,1.788 c 0,-3.059 1.534,-5.563 4.763,-5.563 2.442,0 4.5,2.047 4.5,4.55 0,2.742 -2.078,4.311 -4.218,4.311 -1.352,0 -2.522,-0.635 -2.684,-0.735 0.666,2.444 3.875,4.093 4.804,4.391 0.383,0.119 0.464,0.338 0.363,0.576 l -0.343,0.815 c -0.081,0.219 -0.263,0.318 -0.505,0.238 -1.857,-0.695 -6.68,-3.039 -6.68,-8.583 m 4.743,-3.775 c -2.2,0 -2.947,2.265 -2.785,3.934 0.121,0.358 1.17,1.51 2.764,1.51 1.494,0 2.685,-1.212 2.685,-2.702 0,-1.49 -1.171,-2.742 -2.664,-2.742 M 31.887,1.57 c 0.444,-0.517 1.635,-1.769 4.137,-1.769 2.785,0 4.561,1.629 4.561,3.795 0,1.709 -1.493,2.901 -2.442,3.298 l 0,0.06 c 0.909,0.417 2.079,1.589 2.079,3.119 0,2.225 -1.877,3.636 -4.218,3.636 -2.2,0 -3.734,-1.748 -3.734,-1.748 -0.141,-0.14 -0.161,-0.378 0,-0.517 l 0.747,-0.656 c 0.182,-0.159 0.404,-0.119 0.525,0.04 0.404,0.437 1.13,1.113 2.341,1.113 1.191,0 2.301,-0.835 2.301,-2.166 0,-1.172 -0.949,-2.126 -2.846,-2.126 l -1.13,0 c -0.283,0 -0.404,-0.119 -0.404,-0.417 l 0,-0.854 c 0,-0.279 0.162,-0.418 0.384,-0.418 l 1.13,0 c 2.159,0 3.189,-1.132 3.189,-2.324 0,-1.331 -1.211,-2.146 -2.523,-2.146 -1.494,0 -2.624,1.073 -2.745,1.232 -0.161,0.179 -0.343,0.199 -0.545,0.04 L 31.907,2.046 C 31.766,1.927 31.766,1.709 31.887,1.57"
             style="fill:#ffffff;fill-opacity:1;fill-rule:nonzero;stroke:none"
             id="path1274"
             inkscape:connector-curvature="0" />
        </g>
      </g>
    </g>
  </g>
</svg>
