<?xml version="1.0" encoding="UTF-8" standalone="no"?>
<!-- Created with Inkscape (http://www.inkscape.org/) -->

<svg
   xmlns:dc="http://purl.org/dc/elements/1.1/"
   xmlns:cc="http://creativecommons.org/ns#"
   xmlns:rdf="http://www.w3.org/1999/02/22-rdf-syntax-ns#"
   xmlns:svg="http://www.w3.org/2000/svg"
   xmlns="http://www.w3.org/2000/svg"
   xmlns:sodipodi="http://sodipodi.sourceforge.net/DTD/sodipodi-0.dtd"
   xmlns:inkscape="http://www.inkscape.org/namespaces/inkscape"
   width="32.667927mm"
   height="24.03179mm"
   viewBox="0 0 115.7525 85.152011"
   id="svg4309"
   version="1.1"
   inkscape:version="0.91 r13725"
   sodipodi:docname="polimilogotestobianco.svg">
  <defs
     id="defs4311">
    <clipPath
       clipPathUnits="userSpaceOnUse"
       id="clipPath48">
      <path
         d="m 0,0 595.276,0 0,841.89 L 0,841.89 0,0 Z"
         id="path50"
         inkscape:connector-curvature="0" />
    </clipPath>
    <clipPath
       clipPathUnits="userSpaceOnUse"
       id="clipPath88">
      <path
         d="m 0,0 595.276,0 0,841.89 L 0,841.89 0,0 Z"
         id="path90"
         inkscape:connector-curvature="0" />
    </clipPath>
  </defs>
  <sodipodi:namedview
     id="base"
     pagecolor="#ffffff"
     bordercolor="#666666"
     borderopacity="1.0"
     inkscape:pageopacity="0.0"
     inkscape:pageshadow="2"
     inkscape:zoom="0.98994949"
     inkscape:cx="51.466738"
     inkscape:cy="16.337897"
     inkscape:document-units="px"
     inkscape:current-layer="layer1"
     showgrid="false"
     fit-margin-top="0"
     fit-margin-left="0"
     fit-margin-right="0"
     fit-margin-bottom="0"
     inkscape:window-width="1600"
     inkscape:window-height="853"
     inkscape:window-x="-2"
     inkscape:window-y="-3"
     inkscape:window-maximized="1" />
  <metadata
     id="metadata4314">
    <rdf:RDF>
      <cc:Work
         rdf:about="">
        <dc:format>image/svg+xml</dc:format>
        <dc:type
           rdf:resource="http://purl.org/dc/dcmitype/StillImage" />
        <dc:title></dc:title>
      </cc:Work>
    </rdf:RDF>
  </metadata>
  <g
     inkscape:label="Layer 1"
     inkscape:groupmode="layer"
     id="layer1"
     transform="translate(-110.69518,-618.35766)">
    <g
       transform="matrix(1.25,0,0,-1.25,-204.29057,1373.7203)"
       id="g4262">
      <g
         transform="translate(318.9878,582.8444)"
         id="g40">
        <path
           inkscape:connector-curvature="0"
           id="path42"
           style="fill:none;stroke:#ffffff;stroke-width:0.34400001;stroke-linecap:butt;stroke-linejoin:miter;stroke-miterlimit:10;stroke-dasharray:none;stroke-opacity:1"
           d="M 0,0 -1.84,0.063 M 0.009,0.972 -1.832,0.943 m 1.805,1 -1.837,-0.12 m 1.756,1.078 -1.831,-0.189 m 1.705,1.152 -1.82,-0.279 M -0.405,4.82 -2.209,4.451 M -0.622,5.767 -2.405,5.31 M -0.882,6.703 -2.641,6.159 M -1.182,7.614 -2.92,7.007 m 1.391,1.514 -1.706,-0.69 M -1.917,9.41 -3.589,8.639 M -2.347,10.28 -3.98,9.429 m 1.163,1.7 -1.59,-0.928 m 1.082,1.754 -1.545,-1.002 m 0.999,1.803 -1.496,-1.074 m 0.913,1.849 -1.443,-1.143 m 0.825,1.889 -1.388,-1.209 m 0.736,1.927 -1.329,-1.274 m 0.644,1.96 -1.268,-1.335 m 0.552,1.99 -1.203,-1.394 m 0.466,2.007 -1.153,-1.435 m 0.38,2.02 -1.084,-1.488 m 0.284,2.037 -1.011,-1.539 m 0.186,2.05 -0.936,-1.585 m 0.088,2.056 -0.859,-1.628 m -0.011,2.06 -0.779,-1.668 m -0.11,2.058 -0.697,-1.704 m -0.209,2.052 -0.613,-1.735 m -0.309,2.041 -0.527,-1.764 m -0.398,2.022 -0.461,-1.782 m -0.486,2 -0.372,-1.803 m -0.585,1.977 -0.281,-1.82 m -0.671,1.947 -0.213,-1.828 m -0.755,1.913 -0.122,-1.837 m -0.85,1.877 -0.029,-1.841 m -0.932,1.836 0.041,-1.84 m -1.013,1.791 0.134,-1.837 m -1.101,1.742 0.226,-1.827 m -1.188,1.687 0.317,-1.814 m -1.26,1.631 0.384,-1.801 m -1.329,1.571 0.474,-1.779 m -1.406,1.506 0.561,-1.754 m -1.479,1.437 0.646,-1.724 m -1.548,1.364 0.729,-1.69 m -1.603,1.294 0.79,-1.663 m -1.654,1.221 0.87,-1.623 m -1.713,1.141 0.947,-1.579 m -1.766,1.059 1.022,-1.532 m -1.816,0.974 1.094,-1.481 m -1.861,0.888 1.163,-1.428 m -1.902,0.799 1.23,-1.37 m -1.938,0.708 1.293,-1.31 m -1.963,0.623 1.339,-1.262 m -1.984,0.537 1.398,-1.197 m -2.008,0.443 1.454,-1.129 m -2.029,0.347 1.507,-1.057 m -2.045,0.249 1.557,-0.983 m -2.056,0.151 1.602,-0.907 m -2.062,0.051 1.644,-0.827 M -39.738,9.2 -38.064,8.433 m -2.052,-0.128 1.709,-0.683 m -2.045,-0.229 1.741,-0.597 m -2.034,-0.33 1.769,-0.51 m -2.017,-0.43 1.792,-0.42 m -1.995,-0.52 1.807,-0.352 m -1.967,-0.607 1.823,-0.261 m -1.938,-0.705 1.833,-0.168 m -1.904,-0.79 1.839,-0.099 m -1.865,-0.874 1.841,-0.005 m -1.823,-0.967 1.839,0.088 m -1.776,-1.047 1.834,0.157 m -1.725,-1.123 1.824,0.249 m -1.671,-1.209 1.81,0.34 m -1.614,-1.281 1.796,0.408 m -1.553,-1.348 1.773,0.495 m -1.486,-1.424 1.747,0.583 m -1.417,-1.496 1.716,0.667 m -1.343,-1.564 1.681,0.75 m -1.268,-1.628 1.643,0.831 m -1.188,-1.689 1.601,0.909 m -1.113,-1.734 1.567,0.965 m -1.036,-1.777 1.519,1.04 m -0.95,-1.826 1.468,1.111 m -0.863,-1.87 1.413,1.18 m -0.774,-1.909 1.355,1.246 m -0.683,-1.946 1.294,1.31 m -0.59,-1.977 1.23,1.369 m -0.496,-2.004 1.163,1.427 m -0.409,-2.019 1.111,1.468 m -0.32,-2.032 1.039,1.52 m -0.224,-2.046 0.965,1.568 m -0.125,-2.055 0.887,1.613 m -0.025,-2.061 0.807,1.654 m 0.074,-2.061 0.725,1.692 m 0.165,-2.054 0.662,1.718 m 0.255,-2.04 0.575,1.749 m 0.356,-2.029 0.488,1.776 m 0.455,-2.011 0.398,1.797 m 0.545,-1.986 0.329,1.811 m 0.632,-1.958 0.238,1.826 m 0.729,-1.928 0.145,1.835 m 0.815,-1.892 0.075,1.839 m 0.898,-1.852 -0.018,1.841 m 0.99,-1.809 -0.111,1.838 m 1.068,-1.762 -0.18,1.832 m 1.145,-1.71 -0.272,1.821 m 1.23,-1.653 -0.363,1.804 m 1.311,-1.593 -0.452,1.785 m 1.378,-1.531 -0.517,1.766 m 1.441,-1.467 -0.603,1.74 m 1.512,-1.397 -0.688,1.708 m 1.58,-1.323 -0.771,1.672 m 1.643,-1.246 -0.85,1.633 m 1.701,-1.167 -0.928,1.59 m 1.756,-1.085 -1.003,1.544 m 1.798,-1.007 -1.058,1.507 m 1.836,-0.927 -1.128,1.454 m 1.878,-0.839 -1.196,1.399 m 1.917,-0.75 -1.262,1.34 m 1.952,-0.659 -1.324,1.279 m 1.982,-0.566 -1.384,1.214 m 2.008,-0.471 -1.44,1.147 m 2.029,-0.375 -1.494,1.075 m 2.04,-0.287 -1.531,1.021 m 2.046,-0.198 -1.579,0.946 m 2.055,-0.099 -1.624,0.867 m 2.06,10e-4 -1.664,0.787 m 2.059,0.1 -1.701,0.704 m 2.053,0.202 -1.734,0.619 m 2.04,0.291 -1.755,0.554 m 2.022,0.381 -1.782,0.466 m 2.004,0.481 -1.803,0.375 m 1.981,0.581 -1.819,0.284 m 1.95,0.668 -1.828,0.215 m 1.917,0.754 -1.837,0.122" />
      </g>
      <g
         id="g44">
        <g
           clip-path="url(#clipPath48)"
           id="g46">
          <g
             transform="translate(313.3055,589.2534)"
             id="g52">
            <path
               inkscape:connector-curvature="0"
               id="path54"
               style="fill:none;stroke:#ffffff;stroke-width:0.19599999;stroke-linecap:round;stroke-linejoin:round;stroke-miterlimit:4;stroke-dasharray:none;stroke-opacity:1"
               d="m 0,0 c 0.387,-0.966 0.633,-2.308 0.846,-4.144 0.41,-3.531 -0.513,-6.696 -0.801,-7.866 -0.287,-1.171 0.179,-2.834 0.703,-2.965 0,0 -2.011,-0.221 -2.872,-0.187 -0.364,0.013 -0.406,0.009 -0.81,0.027 -1.402,0.061 -2.845,0.138 -2.932,0.204 m -19.429,14.189 c 0,0 -1.483,-0.231 -3.068,-0.139 -0.409,0.024 -0.825,0.069 -1.224,0.145 -0.223,0.043 -0.441,0.095 -0.65,0.158 l 0,0.001 c -0.109,0.033 -0.217,0.07 -0.321,0.11 0,0 -0.665,-0.242 -0.872,-1.932 0,0 -0.085,-1.668 -0.3,-2.334 -0.409,-0.875 -1.304,-1.787 -1.304,-1.787 0,0 -0.244,-0.27 0.053,-0.537 l 0.647,-0.448 m 1.139,-0.472 c -0.026,-0.013 -0.994,0.214 -1.028,0.343 0,0 -0.034,0.075 0.019,0.123 0.054,0.047 0.215,0.227 0.271,0.325 0.023,0.04 0.033,0.058 0.13,0.27 0.138,0.301 0.371,0.816 0.371,0.816 0.201,0.522 0.168,0.614 0.168,0.614 l 0.224,2.851 c 0.032,1.294 0.792,2.021 0.792,2.021 m 14.914,5.244 c 0,0 -0.082,0.137 -0.147,0.249 -0.038,0.068 -0.071,0.127 -0.077,0.142 -0.017,0.043 -0.045,0.11 0.015,0.193 0.06,0.083 0.208,0.019 0.226,0.004 0.017,-0.013 0.102,-0.121 0.222,-0.214 0.117,-0.096 0.1,-0.006 0.202,-0.45 0.021,-0.092 0.027,-0.167 0.019,-0.228 -0.033,-0.229 -0.304,-0.185 -0.597,-0.38 -0.377,-0.251 -0.794,0.02 -0.794,0.02 0,0 -0.605,0.569 -0.643,0.627 -0.038,0.056 -0.103,0.051 -0.156,-0.01 -0.055,-0.061 -0.023,-0.067 -0.258,-0.071 -0.234,-0.004 -0.341,0.134 -0.373,0.202 -0.033,0.066 0.297,0.202 0.297,0.202 0,0 0.362,0.213 0.726,0.242 0.06,0.005 0.116,0.01 0.168,0.015 0.261,0.026 0.428,0.042 0.671,-0.107 l 0.338,-0.201 m 4.729,-13.045 c 0,0 -0.024,-1.882 -0.016,-2.029 0.008,-0.148 0.052,-0.767 -0.125,-1.015 -0.177,-0.25 -0.367,-0.694 -0.345,-0.873 0.021,-0.179 0.022,-0.497 -0.012,-0.589 -0.034,-0.093 -0.221,-0.671 -0.221,-0.671 0,0 -0.076,-0.48 0.367,-0.536 0.443,-0.056 1.052,-0.063 1.287,0.056 0.236,0.119 0.421,0.355 0.355,0.511 -0.068,0.157 -0.242,0.261 -0.356,0.411 -0.116,0.15 -0.26,0.434 -0.212,0.612 0,0 0.073,0.242 0.07,0.347 -0.005,0.104 -0.027,0.524 0.077,0.672 0.104,0.145 0.858,1.298 0.858,1.298 0,0 0.365,0.54 0.487,2.1 m -2.155,-0.246 c 0.848,0.189 1.591,0.287 2.147,0.337 l 0,0 c 0.657,0.059 1.052,0.053 1.052,0.053 m -8.929,-1.599 c -0.059,-0.868 -0.124,-1.495 -0.124,-1.495 -0.133,-1.223 -0.767,-2.81 -0.767,-2.81 0,0 0.661,0.022 1.273,0.225 0.614,0.204 1.004,0.681 1.585,0.346 m -5.044,1.241 c 0,0 1.645,-1.744 2.182,-1.806 m 16.135,-1.487 c 0,0 -1.768,0.339 -1.839,3.168 m -10.899,17.791 0.292,-1.128 m -6.142,-3.094 0.195,0.024 c 0,0 0.486,-0.073 0.546,-0.077 0.061,-0.003 0.502,-0.085 0.502,-0.085 0.042,-0.122 -0.219,-0.211 -0.219,-0.211 l -0.471,-0.078 0.146,-0.24 c 0.147,-0.238 -0.175,-0.428 -0.175,-0.428 0.093,-0.453 -0.196,-0.59 -0.196,-0.59 -0.443,-0.299 -0.871,-0.039 -1.184,0.139 -0.078,0.044 -0.148,0.084 -0.21,0.108 -0.314,0.124 -0.229,0.417 -0.236,0.708 -0.008,0.29 0.113,0.544 0.195,0.654 0.081,0.109 0.465,0.246 0.465,0.246 l 0.323,-0.085 0.319,-0.085 0.008,-0.002 c 0,0 0.148,-0.23 0.08,-0.275 -0.069,-0.048 -0.321,-0.157 -0.427,-0.1 l -0.107,0.056 m 4.397,-7.454 c 0,0 -0.335,0.089 -0.415,0.226 m 5.402,11.777 c 0,0 0.291,-0.175 0.593,-0.18 m -1.808,0.69 c 0,0 0.291,-0.175 0.592,-0.18 M -18.752,5.32 -18.255,4.989 M -2.719,-2.18 c -4.634,1.241 -1.609,4.291 -1.134,4.737 m 0.513,-5.07 -0.734,-2.881 m -6.293,2.263 0.813,0.169 m -0.46,-0.124 0.094,-0.103 m -0.731,8.931 -0.032,-0.139 m -1.115,0.558 -0.012,-0.09 m -6.729,-0.949 -0.077,-0.114 m 2.576,-11.126 -0.107,-0.091 m 0.218,8.158 0.038,-0.056 M -16.273,1.77 c 0,0 0.341,0.463 0.508,0.33 m 0.72,-1.156 c 0,0 0.314,0.069 0.488,0.189 m 2.928,4.235 c 0,0 -0.015,-0.053 0.185,-0.065 m -0.383,-0.202 c 0,0 0.128,-0.107 0.31,-0.118 m -2.559,-14.265 c 0,0 -0.022,-0.178 -0.052,-0.361 -0.027,-0.161 -0.06,-0.326 -0.092,-0.375 -0.066,-0.104 -0.183,-0.475 -0.139,-0.533 0,0 0.115,-0.361 0.301,-0.101 l 0.187,0.26 0.197,0.319 m -0.489,1.376 c -0.012,-0.111 -0.107,-0.514 0.137,-0.551 0,0 0.23,-0.006 0.243,0.223 0.014,0.227 0.121,0.336 0.149,0.431 m 0.655,1.398 c 0,0 -0.319,0.272 -0.734,-0.109 C -14,-7.569 -14.06,-7.621 -14.07,-7.629 l -10e-4,0 c 0,0 0,0 0,0 l 0,-0.001 c -10e-4,0 -10e-4,0 0,0.001 l 0,0 0.002,0.002 0,0 m 0,0 c -10e-4,-0.001 -10e-4,-0.001 -10e-4,-0.002 m -10e-4,-0.001 c -0.283,-0.384 -0.264,-0.349 -0.303,-0.45 -0.031,-0.087 -0.165,-0.65 -0.163,-0.732 0.003,-0.08 -0.017,-0.252 -0.059,-0.284 -0.042,-0.03 -0.282,-0.193 -0.308,-0.159 -0.025,0.037 -0.23,0.334 -0.323,0.353 -0.093,0.019 -0.241,0.034 -0.181,-0.098 0.06,-0.133 -0.369,-0.065 -0.073,-0.32 l 0.295,-0.255 c 0,0 0.27,-0.231 0.437,-0.267 0.166,-0.039 0.446,-0.016 0.58,0.202 m 0.928,4.156 c 0,0 -1.642,-0.662 -0.972,-2.183 m 0.202,1.664 c 0,0 -0.082,1.011 -0.058,1.411 0.013,0.219 0.248,1.316 0.457,2.263 m 3.989,-1.591 0.197,0.118 m 4.337,-10.185 c 0,0 0.844,-0.952 1.526,-1.111 M -6.62,0.068 c 0.005,0.073 0.628,2.016 1.835,2.514 0.442,0.255 0.958,0.04 0.958,0.04 0.255,-0.11 0.986,0.171 1.817,-0.467 l 0.667,0.208 c 1.144,0.182 1.709,-0.806 1.709,-1.417 0,-0.611 -0.834,-1.389 -0.834,-1.389 L -1.32,-1.139 c -0.235,-0.417 -1.119,-0.872 -1.388,-1.057 -0.406,-0.279 -0.84,-0.327 -1.263,-0.239 -1.331,0.276 -2.565,1.896 -2.565,1.896 m -3.353,1.713 c 0,0 0.318,0.412 0.808,0.628 0.117,0.051 2.443,1.271 4.544,0.891 m 2.209,-10.475 c 0,0 -0.767,0.098 -1.329,-0.286 l 0,0 c -0.116,-0.079 -0.224,-0.18 -0.315,-0.307 -0.346,-0.485 -1.766,-1.662 -2.705,-2.419 -0.313,-0.252 -0.573,-0.457 -0.722,-0.575 -0.081,-0.063 -0.356,-0.478 -0.356,-0.478 0,0 0.326,5.262 3.777,9.381 m -2.665,-8.377 c 0,0 -0.185,-1.835 -0.413,-2.378 -0.228,-0.543 -0.389,-0.968 -0.386,-1.181 0.003,-0.209 -0.151,-0.771 -0.219,-0.917 -0.045,-0.095 -0.131,-0.254 -0.178,-0.432 -0.027,-0.099 -0.043,-0.204 -0.032,-0.306 0.027,-0.288 0.043,-0.529 0.252,-0.556 0.208,-0.028 0.528,0.043 0.528,0.043 0,0 0.294,-0.108 0.444,-0.117 0.149,-0.009 0.328,-0.035 0.437,0.033 0.11,0.069 0.325,0.145 0.418,0.216 0.095,0.07 0.365,0.308 0.36,0.489 -0.003,0.182 -0.447,0.808 -0.447,0.808 0,0 -0.022,0.075 -0.049,0.192 -0.064,0.285 -0.153,0.814 -0.008,1.104 0.205,0.409 2.449,3.534 2.297,5.752 m -3.497,5.316 C -7.162,-2.955 -7.433,-3.96 -7.46,-4.17 c -0.028,-0.208 -0.054,-0.418 0.049,-0.677 0.105,-0.263 0.246,-0.917 0.229,-1.203 -0.017,-0.282 -0.152,-1.042 -0.254,-1.47 -0.018,-0.081 -0.034,-0.146 -0.046,-0.2 l -0.054,-0.231 -0.378,-0.81 c 0,0 -0.625,-1.211 -0.732,-1.491 -0.108,-0.28 -0.615,-1.226 -0.094,-2.563 l 0.208,-0.762 c 0.353,-1.102 0.478,-1.199 0.878,-1.266 m -4.534,13.415 c 0,0 -0.164,0.12 -0.117,0.289 0.047,0.168 -0.13,0.485 0.008,0.561 0.093,0.051 0.105,0.298 0.213,0.48 0.054,0.091 0.132,0.165 0.255,0.19 0.372,0.074 0.222,0.426 0.494,0.508 0.275,0.081 0.519,0.285 0.617,0.28 0.097,-0.006 0.449,0.142 0.548,0.163 0.045,0.007 0.164,0.027 0.288,0.04 0.149,0.016 0.305,0.024 0.349,-0.005 0.048,-0.032 0.23,-0.116 0.4,-0.182 C -9.009,0.847 -8.892,0.808 -8.84,0.805 -8.718,0.797 -8.253,0.609 -8.168,0.604 -8.081,0.599 -7.803,0.582 -7.833,0.473 -7.865,0.366 -7.931,0.272 -7.873,0.244 -7.812,0.217 -7.635,0.12 -7.65,0.06 c -0.016,-0.061 -0.11,-0.19 -0.089,-0.263 0.02,-0.076 0.2,-0.33 0.231,-0.419 0.032,-0.086 0.048,-0.221 -0.016,-0.278 -0.066,-0.058 -0.129,-0.104 -0.083,-0.153 0.045,-0.053 0.014,-0.173 -0.038,-0.22 -0.051,-0.045 -0.121,-0.176 -0.172,-0.235 -0.053,-0.057 -0.202,-0.305 -0.279,-0.36 -0.076,-0.057 -0.295,-0.032 -0.325,-0.128 -0.03,-0.097 -0.33,-0.188 -0.403,-0.183 -0.072,0.004 -0.453,-0.242 -0.518,-0.091 -0.064,0.149 -0.061,0.407 -0.031,0.503 0.031,0.095 0.145,0.173 0.174,0.246 0.028,0.071 0.023,0.18 -0.011,0.221 -0.035,0.037 -0.221,0.197 -0.065,0.356 0.156,0.164 0.46,0.731 0.518,0.887 0.058,0.156 0.007,0.317 -0.027,0.356 -0.035,0.038 -0.425,0.257 -0.485,0.284 -0.06,0.029 -0.554,0.133 -0.665,0.127 -0.109,-0.005 -0.426,0.025 -0.552,-0.054 -0.127,-0.076 -0.439,-0.193 -0.503,-0.238 -0.064,-0.045 -0.31,-0.274 -0.31,-0.274 l -0.348,-0.298 c 0,0 -0.418,-0.401 -0.458,-1.278 -0.009,-0.193 0,-0.41 0.037,-0.651 0,0 0.051,-0.391 0.294,-0.685 0.067,-0.083 0.577,-0.478 0.577,-0.478 0,0 0.206,-0.039 0.254,-0.042 0.05,-0.002 0.192,-0.06 0.257,-0.197 0.065,-0.138 0.217,-0.687 0.527,-0.594 l 0.22,0.206 c 0,0 0.322,-0.128 0.383,-0.156 0.053,-0.027 0.563,-0.281 1.169,0.588 0.063,0.09 0.127,0.192 0.191,0.307 0,0 0.209,0.535 0.436,0.964 0.052,0.024 0.246,0.145 0.308,0.168 0.662,0.243 0.908,1.151 0.908,1.151 0,0 0.005,0.128 -0.005,0.311 m -7.815,-17.487 -10e-4,-0.774 m -2.984,1.755 0,-0.784 3.026,-1.021 5.536,1.627 0,0.783 m -8.561,-0.605 2.984,-0.981 5.577,1.586 -3.179,0.653 -2.03,-0.474 -0.202,-0.048 0,0 -3.15,-0.736 -0.001,0 m 5.52,14.251 c 0,0 -0.097,-0.295 -0.203,-0.37 -0.104,-0.073 -0.603,-0.725 -0.509,-1.151 0.095,-0.426 0.312,-1.16 0.312,-1.16 l 0.205,0.024 1.912,0.23 c 0,0 0.13,0.032 0.292,0.093 0.184,0.069 0.409,0.176 0.535,0.318 0.235,0.265 0.902,1.367 0.902,1.367 m -5.619,-11.461 -0.196,-1.405 m 0,0 -0.188,-0.997 0.39,1.045 0.724,1.834 0.888,-2.415 -0.511,3.401 -0.034,0.362 c 0,0 -0.343,-0.027 -0.521,-0.304 -0.177,-0.276 -0.342,-0.87 -0.395,-1.109 -0.046,-0.207 -0.16,-0.4 -0.167,-0.412 l 0,0 c -0.215,-0.006 -0.196,0.296 -0.196,0.296 l -0.078,1.295 c -0.071,0.054 -0.123,0.115 -0.16,0.182 -0.134,0.236 -0.084,0.535 -0.081,0.768 0.004,0.298 0.266,0.636 0.461,1.064 0.089,0.195 0.254,0.714 0.407,1.223 0.182,0.607 0.348,1.198 0.348,1.198 0.089,0.737 0.216,1.278 0.35,1.676 0.288,0.85 0.611,1.049 0.681,1.113 0.106,0.093 0.263,0.581 0.263,0.581 m -0.834,-7.929 c 0.163,0.219 0.344,0.588 0.229,1.076 -0.192,0.811 -0.161,0.989 -0.087,1.227 0.048,0.15 1.062,1.358 1.753,2.621 0.074,0.134 0.144,0.268 0.208,0.402 0.281,0.585 0.464,1.158 0.421,1.621 l 0.613,1.312 0.007,0.012 m -2.628,4.339 -1.282,0.615 m 3.495,3.845 c 0,0 -0.224,-0.909 1.025,-1.795 m 2.783,0.902 c 0,0 -0.169,0.32 -0.659,0.669 -0.237,0.17 -0.519,0.338 -0.831,0.465 m -1.621,2.37 c 0,0 1.324,-0.47 2.162,-1.861 0,0 0.309,-0.538 0.312,-0.811 10e-4,-0.09 10e-4,-0.125 0,-0.131 l 0,0 m 0,0 c -0.001,0.009 -0.003,0.092 -0.003,0.092 m -5.563,2.076 c 0,0 0.24,-0.845 0.684,-0.962 0,0 0.689,-0.021 1.256,0.406 m 0.174,-1.528 c 0,0 -0.103,-0.471 -0.172,-0.445 -0.069,0.023 -0.263,0.35 -0.263,0.35 l 0.207,0.724 0.091,0.895 0.004,0.042 0.7,1.14 c 0.014,0.078 -0.07,0.493 -0.156,0.57 -0.086,0.074 -0.33,0.349 -0.344,0.451 -0.013,0.101 -0.094,0.436 -0.094,0.436 0,0 -0.516,-0.42 -0.629,-0.484 -0.115,-0.064 -0.49,0.01 -0.591,0.016 -0.099,0.005 -0.333,-0.06 -0.39,-0.177 -0.057,-0.116 -0.26,-0.476 -0.314,-0.553 -0.055,-0.076 -0.117,-0.452 -0.118,-0.634 -0.001,-0.092 -0.043,-0.169 -0.09,-0.24 -0.044,-0.066 -0.093,-0.126 -0.116,-0.188 -0.048,-0.126 0.015,-0.25 0.042,-0.453 0.028,-0.202 -0.012,-0.539 -0.038,-0.639 -0.026,-0.098 -0.196,-0.099 -0.235,-0.096 -0.041,0.002 -0.259,-0.125 -0.259,-0.125 0,0 0.047,0.279 0.063,0.349 0.013,0.069 -0.173,0.469 -0.215,0.602 -0.042,0.134 -0.175,1.111 -0.172,1.324 0.003,0.208 0.229,0.816 0.247,0.925 0.017,0.11 0.174,0.571 0.285,0.764 0.038,0.067 0.113,0.162 0.201,0.261 l 0,0 c 0.166,0.191 0.374,0.398 0.443,0.453 0.105,0.082 0.775,0.243 0.775,0.243 0,0 0.797,0.083 1.231,-0.363 0,0 0.489,-0.02 0.63,-0.328 C -9.538,8.032 -9.268,7.526 -9.297,7.379 -9.325,7.23 -9.415,7.076 -9.399,6.994 -9.385,6.912 -9.432,6.444 -9.48,6.317 -9.486,6.301 -9.492,6.285 -9.497,6.27 -9.536,6.164 -9.561,6.077 -9.55,5.982 -9.537,5.87 -9.429,5.502 -9.493,5.427 -9.558,5.351 -9.672,5.277 -9.676,5.207 -9.68,5.138 -9.681,4.807 -9.786,4.723 -9.892,4.639 -9.939,4.513 -9.942,4.453 -9.946,4.392 -9.851,3.966 -9.993,3.784 -10.041,3.722 -10.087,3.674 -10.129,3.642 l 0,-10e-4 c -0.04,-0.003 -0.106,0.009 -0.165,-0.038 l -0.109,-0.079 z m -3.685,-2.012 c 0,0 0.352,0.814 0.385,0.863 0,0 0.617,0.923 -0.001,2.473 -0.097,0.241 -0.466,-0.208 -0.484,-0.23 -10e-4,-0.001 -10e-4,-0.001 -10e-4,-0.001 m -1.609,1.719 c 0,0 -0.307,0.548 0.199,1.151 0.507,0.599 0.671,0.679 0.883,0.706 0.212,0.028 0.586,0.077 0.586,0.077 0,0 0.698,0.505 1.371,0.069 m 0,0 c 0.001,-0.001 0.003,-0.002 0.005,-0.003 m -3.753,-3.13 c 0,0 0.004,0.581 0.164,0.722 0.115,0.102 0.334,0.271 0.556,0.312 0.085,0.016 0.171,0.013 0.252,-0.02 0.294,-0.119 1.122,-0.499 1.334,-0.982 0.132,-0.301 0.094,-0.496 0.01,-0.619 -0.05,-0.074 -0.118,-0.122 -0.177,-0.151 -0.155,-0.082 -0.498,-0.143 -0.498,-0.143 m -3.689,-17.048 c 0,0 -0.158,2.249 -0.094,2.572 m 3.218,8.578 0.04,-1.851 m -3.283,2.502 c 0,0 -1.631,-0.935 -1.307,-3.552 m 5.456,6.088 c 0.004,-0.067 0.102,-0.664 0.099,-0.71 -0.002,-0.043 0.176,-0.492 0.057,-0.591 -0.135,-0.112 -0.333,-0.2 -0.473,-0.271 -1.049,-0.003 -1.623,0.221 -1.623,0.221 m 1.663,-0.237 c -0.023,-0.509 0.224,-0.621 0.264,-0.692 0.039,-0.069 0.093,-0.172 0.093,-0.172 0,0 0.167,-0.025 0.335,0.043 0.168,0.067 0.339,0.239 0.339,0.239 0.267,0.199 0.053,0.394 0.118,0.601 0.065,0.204 -0.126,0.398 -0.126,0.398 0,0 0.074,-0.005 0.079,0.07 0.004,0.075 -0.205,0.238 -0.234,0.254 -0.028,0.017 0.024,0.118 -0.031,0.221 -0.054,0.098 -0.106,0.366 -0.106,0.366 -0.003,0.033 -0.05,0.228 -0.056,0.254 -0.064,0.25 -0.247,0.309 -0.247,0.309 -0.006,0.144 -0.181,0.256 -0.181,0.256 0.042,0.314 -0.268,0.275 -0.306,0.414 -0.036,0.136 -0.317,0.271 -0.317,0.271 -0.116,0.187 -0.451,0.236 -0.451,0.236 -0.11,0.028 -0.608,-0.173 -0.608,-0.173 0,0 -0.189,0.057 -0.42,-0.042 0,0 -0.482,0.111 -0.722,-0.384 0,0 -0.251,-0.169 -0.361,-0.385 0,0 -0.367,-1.085 -0.418,-1.462 -0.054,-0.406 -0.026,-0.318 -0.064,-0.425 -0.067,-0.184 -0.84,-0.865 -0.452,-1.145 0.389,-0.278 0.499,-0.322 0.57,-0.506 0.072,-0.184 1.185,-0.322 1.424,-0.214 0.24,0.107 0.375,0.895 0.375,0.895 0.015,0.179 0.026,0.343 -0.037,0.587 -0.025,0.096 -0.056,0.19 -0.092,0.27 -0.126,0.285 -0.174,0.596 -0.165,0.752 0.009,0.158 -0.089,0.403 -0.193,0.538 -0.105,0.135 -0.261,0.286 -0.222,0.561 0.039,0.277 0.266,0.669 0.388,0.715 0.123,0.044 0.428,0.252 1.021,0.11 0,0 0.228,-0.2 0.271,-0.235 0.043,-0.032 0.22,-0.144 0.342,-0.248 0.12,-0.107 0.164,-0.249 0.169,-0.287 m -7.002,-12.025 c 0,0 0.3,-0.383 0.93,-0.35 l 0,0 c 0.77,0.117 1.34,0.562 1.571,0.927 l 0,0 c 0.316,0.594 0.55,1.407 -0.374,2.571 m 3.78,0.044 c 0,0 -0.253,0.076 -0.248,0.157 m -0.163,-0.373 -0.134,0.107 m -1.499,0.309 c 0,0 0.136,-0.284 0.287,-0.46 0.151,-0.176 0.668,-0.395 0.997,-0.295 0.14,0.042 0.178,0.149 0.259,0.164 0.08,0.016 0.188,0.129 0.29,0.143 0.1,0.014 0.213,0.248 0.213,0.248 0,0 0.337,-0.08 0.349,0.121 0.011,0.199 0.022,0.697 0.022,0.697 0,0 0.269,0.164 0.332,0.541 m -4.329,0.736 c 0,0 -0.154,0.655 0.113,0.779 0,0 0.015,0.013 0.037,0.033 0.05,0.045 0.139,0.127 0.197,0.192 0.087,0.095 0.281,0.327 0.401,0.337 0.121,0.016 0.248,0.126 0.333,0.22 0.087,0.097 0.348,0.441 0.744,0.377 0.397,-0.064 1.276,-0.097 1.391,-0.183 0.115,-0.088 0.654,-0.46 0.734,-0.465 0.03,-0.002 0.106,-10e-4 0.196,-0.016 0.154,-0.028 0.349,-0.102 0.424,-0.321 0,0 0.231,-0.174 0.032,-0.463 0,0 0.427,-0.245 0.494,-0.451 0.068,-0.204 0.124,-0.608 -0.244,-0.726 0,0 -0.443,-0.053 -0.523,-0.049 0,0 -0.029,0.182 -0.128,0.21 -0.098,0.024 -0.198,0.03 -0.303,-0.044 -0.104,-0.073 -0.458,-0.292 -0.56,-0.327 -0.102,-0.032 -0.285,-0.062 -0.307,-0.122 -0.024,-0.058 -0.097,-0.195 -0.465,-0.391 -0.004,-0.002 -1.366,-0.311 -1.373,-0.313 m -0.945,-3.006 c 1.016,0.134 1.212,1.394 1.238,1.793 0.004,0.055 -0.091,0.396 -0.091,0.396 0,0 -0.084,0.385 -0.171,0.722 -0.052,0.202 -1.087,1.653 -1.087,1.653 m -1.487,-5.52 c 0,0 0.423,-0.864 0.466,-1.169 0.025,-0.183 0.261,-0.943 0.453,-1.543 0.124,-0.386 0.23,-0.706 0.25,-0.762 0.042,-0.118 0.301,-0.423 0.205,-0.914 -0.006,-0.031 -0.014,-0.064 -0.023,-0.098 -0.023,-0.08 -0.054,-0.165 -0.098,-0.254 -0.342,-0.704 -0.429,-1.478 -2.207,-1.412 l -0.434,0.04 m 1.178,12.375 c 0,0 1.076,-0.278 1.541,-0.603 0.008,-0.006 0.015,-0.01 0.022,-0.016 0.056,-0.04 0.102,-0.082 0.134,-0.124 m -8.713,-8.369 c 0,0 -0.169,-0.152 -0.181,-0.35 -0.012,-0.201 -0.015,-0.581 -0.176,-0.933 -0.161,-0.349 -0.49,-1.152 -0.46,-1.334 0.028,-0.183 0.462,-0.932 0.467,-0.97 0.005,-0.04 0.126,-0.161 0.147,-0.168 0.023,-0.008 0.208,-0.035 0.247,-0.029 0.037,0.005 0.171,-0.019 0.217,-0.006 0.045,0.01 0.168,0.043 0.172,0.103 0.003,0.06 -0.007,0.143 0.039,0.161 0.046,0.021 0.273,0.293 0.192,0.321 -0.08,0.026 -0.221,0.073 -0.293,0.1 -0.075,0.027 -0.172,0.024 -0.212,0.117 -0.04,0.093 -0.082,0.149 -0.046,0.243 0.036,0.097 0.147,0.186 0.217,0.235 0.071,0.049 0.918,0.646 1.052,0.622 0.134,-0.025 0.46,-0.096 0.595,-0.224 0.134,-0.128 1.293,-1.1 1.541,-1.213 0.25,-0.112 1.256,-0.722 1.758,-0.772 0.499,-0.054 1.381,-0.242 1.758,-0.347 0.377,-0.104 1.194,-0.26 1.549,0.149 0.354,0.406 0.515,0.433 0.537,0.688 0.022,0.254 0.148,0.983 -0.062,1.341 -0.212,0.358 -0.414,0.61 -0.414,0.61 m -9.077,3.464 c 0,0 -0.257,-1.098 0.465,-1.77 0.015,-0.015 0.031,-0.029 0.048,-0.043 0.781,-0.668 1.456,-1.43 2.371,-1.865 0.916,-0.439 2.931,-1.238 3.147,-1.313 0.045,-0.015 0.13,-0.046 0.236,-0.09 0.404,-0.162 1.124,-0.479 1.245,-0.597 m -7.853,6.659 c 0,0 0.064,-0.605 0.287,-0.878 0.021,-0.025 0.046,-0.052 0.075,-0.082 0.295,-0.292 1.026,-0.765 1.915,-0.818 0.975,-0.058 2.006,-0.2 2.581,0.341 l 0,0 c 10e-4,10e-4 0.002,0.003 0.004,0.004 m -2.081,4.732 c 0,0 0.085,-0.092 0.222,-0.237 0.441,-0.465 1.425,-1.48 1.882,-1.751 m -0.027,-2.748 c 0.054,-0.652 0.162,-1.212 0.418,-1.423 0,0 0.308,-0.259 0.343,-0.29 0.036,-0.034 0.311,-0.207 0.337,-0.269 0.027,-0.06 0.105,-0.268 0.065,-0.31 -0.041,-0.044 -0.204,-0.132 -0.221,-0.162 -0.016,-0.028 -0.072,-0.19 0.038,-0.25 0,0 0.05,-0.039 0.107,0.033 0.057,0.07 0.141,0.097 0.194,0.108 0.053,0.012 0.331,0.129 0.338,0.25 0.007,0.114 0.012,0.208 0.013,0.216 m 0,10e-4 0,-10e-4 0.46,-0.959 c 0,0 0.139,-0.068 0.179,-0.031 0.039,0.034 0.095,0.075 0.069,0.144 -0.026,0.069 -0.107,0.352 -0.107,0.352 l -0.118,0.406 -0.098,0.245 -0.093,0.278 m 0,0.001 0,-0.001 0.456,-0.607 0.239,-0.403 c 0,0 0.12,-0.137 0.197,-0.103 0.076,0.031 0.168,0.072 0.105,0.234 -0.067,0.161 -0.205,0.484 -0.205,0.484 0,0 -0.201,0.396 -0.388,0.542 l 0.419,-0.16 0.571,-0.365 c 0,0 0.091,0.011 0.123,0.053 0.032,0.044 -0.007,0.122 -0.049,0.169 -0.043,0.047 -0.47,0.575 -0.47,0.575 0,0 -0.186,0.141 -0.282,0.182 0,0 -0.092,0.074 -0.112,0.129 -0.018,0.052 -0.255,0.269 -0.297,0.309 -0.043,0.04 -0.412,0.273 -0.538,0.303 -0.125,0.03 -0.461,0.072 -0.434,0.266 0.027,0.194 0.429,1.146 0.429,1.146 l 0.291,0.592 c 0,0 0.049,0.094 0.117,0.232 0.137,0.28 0.349,0.739 0.36,0.927 0,0 0.707,0.095 0.727,0.436 0.02,0.339 0.271,0.844 -1.767,1.589 0,0 -0.605,-0.405 -0.903,-1.027 -0.15,-0.315 -0.303,-0.685 -0.414,-1.113 -0.109,-0.422 -0.177,-0.9 -0.16,-1.437 0.014,-0.423 0.026,-0.875 0.061,-1.291 m -3.55,2.881 c 0,0 -0.655,0.44 -0.755,0.446 -0.048,0.003 -0.221,0.032 -0.412,0.057 -0.203,0.029 -0.428,0.054 -0.543,0.039 -0.222,-0.026 -0.927,-0.423 -0.972,-0.841 -0.045,-0.419 -0.372,-1.541 0.67,-1.522 0,0 0.397,0.221 0.583,0.391 0.026,0.024 0.049,0.047 0.065,0.069 0.131,0.173 0.898,0.609 1.038,0.601 0.082,-0.006 0.425,0.002 0.719,-0.026 0.202,-0.02 0.38,-0.056 0.434,-0.125 0.13,-0.168 0.216,-0.734 0.292,-0.798 0.077,-0.065 0.687,-0.562 0.687,-0.562 m -0.127,3.874 c 0,0 -0.377,-0.182 -0.71,-0.4 -0.167,-0.109 -0.323,-0.226 -0.416,-0.335 -0.245,-0.282 -0.446,-0.599 -0.504,-0.875 -0.009,-0.04 -0.014,-0.078 -0.016,-0.116 -0.018,-0.297 0.247,-0.553 0.362,-0.642 m 3.378,4.566 -0.946,-0.404 c 0,0 -0.976,-0.243 -1.218,-0.27 -0.241,-0.024 -1.175,-0.229 -1.148,-0.772 0.028,-0.541 -0.064,-0.735 0.128,-0.886 0.191,-0.154 0.366,-0.244 0.366,-0.244 m 5.89,10.173 c 0,0 0.594,-0.421 0.649,-0.629 M -22.826,1.58 c 0,0 -0.107,-0.397 0.009,-0.582 0,0 0.306,-0.856 1.228,-0.925 0.087,-0.007 0.935,-0.04 0.935,-0.04 m 1.64,4.201 0.194,-0.211 m -3.72,2.429 c -0.086,0.228 0.15,0.439 0.253,0.5 0.016,0.009 0.17,0.042 0.17,0.042 -0.002,0.016 -0.004,0.025 -0.005,0.038 -0.021,0.325 0.977,0.485 0.977,0.485 0.029,0.639 1.554,0.368 1.554,0.368 0.719,0.117 1.447,-0.427 1.447,-0.427 0.566,0.108 0.867,-0.574 0.867,-0.574 0.541,-0.161 0.305,-0.938 0.29,-1.008 -0.014,-0.069 -0.012,-0.199 -0.295,-0.242 -0.092,-0.014 -0.198,0.016 -0.305,0.064 -0.225,0.101 -0.257,0.053 -0.582,0.259 l -0.407,0.306 c 0,0 0.03,-0.323 -0.108,-0.456 -0.138,-0.132 -0.188,-0.129 -0.278,-0.123 -0.09,0.005 -0.291,-0.192 -0.416,-0.267 -0.125,-0.072 -0.327,-0.287 -0.639,-0.3 0,0 -0.588,-0.127 -0.753,-0.035 -0.166,0.09 -0.54,-0.079 -0.591,0.064 -0.033,0.092 -0.133,0.229 -0.309,0.341 m -0.209,-1.775 1.455,0.378 0.082,-0.045 0.573,-0.311 c 0,0 0.378,-0.202 0.514,-0.181 0.136,0.022 0.141,0.098 0.145,0.157 0.003,0.059 0.1,0.16 0.145,0.171 0.046,0.012 0.145,0.142 0.145,0.142 0,0 0.179,0.005 0.243,0.045 0.059,0.039 0.15,0.146 0.158,0.156 l 0,10e-4 m 0,-10e-4 c 0,0 0.225,-0.253 0.291,0.073 0.064,0.326 0.361,1.015 0.414,1.162 0.056,0.146 0.113,0.207 0.113,0.207 m -2.752,-1.641 c 0,0 0.067,-0.538 -0.231,-0.898 -0.049,-0.059 -0.107,-0.113 -0.177,-0.159 l -0.501,-0.332 m -2.369,-1.434 0.762,0.383 0.6,0.301 c 0,0 0.894,0.311 1.384,0.529 l 0,0 c 0.178,0.078 0.301,0.145 0.312,0.18 0.036,0.133 0.03,0.509 0.03,0.509 m -4.92,-0.124 c -0.491,-0.182 -1.002,0.33 -1.476,0.928 -0.475,0.6 -0.113,1.12 0.562,1.86 0.6,0.657 2.423,0.843 2.827,0.874 m -2.16,-5.781 -0.884,0.293 c -0.147,0.04 -0.998,0.39 -1.178,0.401 -0.179,0.01 -0.619,0.186 -0.821,0.317 -0.203,0.135 -0.616,0.76 -0.607,0.91 0.007,0.123 0.068,0.803 0.155,1.307 0.02,0.113 0.041,0.217 0.062,0.303 0.118,0.473 0.519,0.629 0.799,0.793 0.28,0.165 0.587,0.776 0.898,0.969 0.313,0.191 1.133,0.351 1.773,0.494 0.638,0.141 1.863,0.008 1.863,0.008 0,0 0.037,0.002 0.101,0 0.183,-0.005 0.586,-0.04 0.99,-0.242 0.11,-0.054 0.219,-0.121 0.324,-0.202 0.226,-0.176 0.389,-0.382 0.496,-0.601 0.192,-0.393 0.205,-0.829 0.086,-1.208 -0.074,-0.239 -0.193,-0.461 -0.323,-0.648 -0.188,-0.272 -0.399,-0.469 -0.528,-0.533 -0.217,-0.107 -0.43,-0.155 -0.539,-0.479 -0.109,-0.323 -0.274,-1.064 -0.623,-1.374 0,0 -0.055,-0.016 -0.019,-0.165 0.011,-0.044 0.029,-0.099 0.059,-0.168 0.131,-0.308 0.562,-1.145 0.554,-1.776 -0.008,-0.631 0.106,-1.238 0.257,-1.727 0.152,-0.49 0.446,-1.079 0.566,-1.086 0.119,-0.008 0.355,-0.08 0.44,-0.178 0.084,-0.095 0.407,-0.233 0.495,-0.27 0.054,-0.021 0.181,-0.079 0.206,-0.145 0.017,-0.043 -0.011,-0.089 -0.132,-0.129 -0.307,-0.102 -0.573,-0.026 -0.573,-0.026 0,0 -0.16,0.091 -0.213,0.088 -0.052,-0.004 -0.124,-0.075 -0.171,-0.101 -0.043,-0.026 -0.222,-0.075 -0.289,-0.163 0,0 0,0 -10e-4,-10e-4 -0.006,-0.007 -0.011,-0.014 -0.014,-0.022 m 0.016,0.028 c 0,0 0,-0.002 -0.001,-0.005 m -10e-4,-10e-4 c -0.013,-0.037 -0.089,-0.235 -0.106,-0.302 -0.02,-0.074 -0.065,-0.327 -0.071,-0.431 -0.007,-0.105 0.001,-0.242 -0.077,-0.281 0,0 -0.189,-0.139 -0.294,-0.148 -0.106,-0.008 -0.287,-0.027 -0.388,0.054 -0.1,0.081 -0.211,0.223 -0.312,0.302 -0.021,0.018 -0.043,0.042 -0.065,0.071 -0.084,0.11 -0.161,0.3 -0.122,0.559 0.049,0.328 0.245,0.585 0.25,0.661 0.004,0.074 -0.359,1.028 -0.359,1.028 0,0 -0.557,0.753 -0.65,0.94 -0.071,0.138 -0.387,0.483 -0.598,1.287 -0.072,0.276 -0.132,0.604 -0.166,0.996 0,0 -0.079,0.228 -0.06,0.649 0.004,0.091 0.012,0.191 0.027,0.299 0.08,0.612 0.054,1.41 0.063,1.56 0.002,0.036 0.009,0.109 0.021,0.205 0.037,0.298 0.121,0.819 0.256,1.175 0.179,0.471 0.864,1.616 0.864,1.616 M -25.557,0.91 c 0,0 -0.045,-0.033 -0.123,-0.09 -0.2,-0.144 -0.619,-0.442 -1.068,-0.738 -0.625,-0.414 -1.162,0.159 -1.478,0.389 -0.318,0.228 -0.991,0 -1.598,-0.085 -0.354,-0.049 -0.661,0.166 -0.884,0.378 -0.159,0.152 -0.275,0.301 -0.334,0.355 -0.143,0.129 -0.258,0.707 -0.1,0.848 0.159,0.141 0.612,0.684 0.612,0.684 0.708,1.28 1.439,1.446 1.439,1.446 m -1.611,-3.328 c 0,0 -0.002,-0.002 -0.006,-0.005 -0.05,-0.042 -0.408,-0.382 0.15,-1.231 m 2.194,-0.442 c 0,0 -0.615,-0.634 -0.615,-1.641 10e-4,-1.005 0.286,-2.494 0.28,-2.84 -0.003,-0.213 -0.089,-0.735 -0.2,-1.247 -0.069,-0.317 -0.239,-1.025 0.067,-1.789 m -0.761,7.656 c 0,0 -0.906,-0.623 -0.891,-2.127 0.014,-1.4 0.221,-3.323 -0.36,-4.363 -0.042,-0.077 -0.089,-0.152 -0.141,-0.224 0,0 -0.446,-0.526 -0.072,-0.548 0.374,-0.023 0.595,0.007 0.778,-0.199 0.077,-0.088 0.164,-0.173 0.252,-0.218 0,0 0.38,-0.087 0.796,-0.025" />
          </g>
          <g
             transform="translate(305.8313,577.8132)"
             id="g56">
            <path
               inkscape:connector-curvature="0"
               id="path58"
               style="fill:none;stroke:#ffffff;stroke-width:0.177;stroke-linecap:round;stroke-linejoin:round;stroke-miterlimit:4;stroke-dasharray:none;stroke-opacity:1"
               d="M 0,0 C 0,0 -0.917,-0.732 0.449,-1.141" />
          </g>
          <g
             transform="translate(313.187,586.2548)"
             id="g60">
            <path
               inkscape:connector-curvature="0"
               id="path62"
               style="fill:none;stroke:#ffffff;stroke-width:0.19599999;stroke-linecap:round;stroke-linejoin:round;stroke-miterlimit:4;stroke-dasharray:none;stroke-opacity:1"
               d="M 0,0 C 0,0 0.243,-1.262 0,-2.649 -0.243,-4.036 0.273,-8.166 0.164,-8.987" />
          </g>
        </g>
      </g>
      <g
         id="g84">
        <g
           clip-path="url(#clipPath88)"
           id="g86">
          <g
             transform="translate(267.5239,536.4985)"
             id="g92">
            <path
               inkscape:connector-curvature="0"
               id="path94"
               style="fill:#ffffff;fill-opacity:1;fill-rule:nonzero;stroke:none"
               d="m 0,0 c -0.02,-0.14 0.05,-0.23 0.19,-0.23 l 0.65,0 c 0.08,0 0.17,0.07 0.18,0.14 l 0.72,4.469 0.04,0 1.809,-4.599 c 0.02,-0.06 0.09,-0.11 0.17,-0.11 l 0.18,0 c 0.09,0 0.15,0.05 0.17,0.11 l 1.799,4.599 0.03,0 0.74,-4.469 c 0.02,-0.07 0.1,-0.14 0.19,-0.14 l 0.65,0 c 0.14,0 0.21,0.09 0.18,0.23 l -1.23,6.718 c -0.02,0.08 -0.1,0.15 -0.18,0.15 l -0.16,0 c -0.07,0 -0.15,-0.05 -0.17,-0.11 L 3.879,1.65 3.839,1.65 1.75,6.758 c -0.02,0.06 -0.11,0.11 -0.17,0.11 l -0.16,0 c -0.08,0 -0.16,-0.07 -0.18,-0.15 L 0,0 Z m 9.167,-0.04 c 0,-0.1 0.09,-0.19 0.19,-0.19 l 0.66,0 c 0.1,0 0.19,0.09 0.19,0.19 l 0,6.618 c 0,0.1 -0.09,0.19 -0.19,0.19 l -0.66,0 c -0.1,0 -0.19,-0.09 -0.19,-0.19 l 0,-6.618 z m 2.979,0 c 0,-0.1 0.08,-0.19 0.19,-0.19 l 3.559,0 c 0.11,0 0.19,0.09 0.19,0.19 l 0,0.55 c 0,0.1 -0.08,0.19 -0.19,0.19 l -2.709,0 0,5.878 c 0,0.1 -0.09,0.19 -0.19,0.19 l -0.66,0 c -0.11,0 -0.19,-0.09 -0.19,-0.19 l 0,-6.618 z m 4.719,-0.19 0.63,0 c 0.12,0 0.2,0.08 0.23,0.15 0.2,0.46 0.41,0.91 0.61,1.37 l 3.269,0 0.62,-1.37 c 0.04,-0.09 0.11,-0.15 0.23,-0.15 l 0.629,0 c 0.15,0 0.23,0.13 0.17,0.26 l -3.049,6.728 c -0.03,0.06 -0.12,0.11 -0.17,0.11 l -0.1,0 c -0.05,0 -0.14,-0.05 -0.17,-0.11 L 16.695,0.03 c -0.06,-0.13 0.02,-0.26 0.17,-0.26 m 1.86,2.379 1.219,2.74 0.05,0 1.23,-2.74 -2.499,0 z m 5.528,-2.189 c 0,-0.1 0.09,-0.19 0.19,-0.19 l 0.63,0 c 0.11,0 0.19,0.09 0.19,0.19 l 0,4.869 0.01,0 4.339,-5.159 0.259,0 c 0.1,0 0.19,0.08 0.19,0.18 l 0,6.728 c 0,0.1 -0.09,0.19 -0.19,0.19 l -0.639,0 c -0.11,0 -0.19,-0.09 -0.19,-0.19 l 0,-4.729 -0.01,0 -4.339,5.019 -0.25,0 c -0.1,0 -0.19,-0.08 -0.19,-0.18 l 0,-6.728 z m 7.238,3.299 c 0,-1.999 1.59,-3.589 3.589,-3.589 1.999,0 3.599,1.59 3.599,3.589 0,2 -1.6,3.609 -3.599,3.609 -1.999,0 -3.589,-1.609 -3.589,-3.609 m 1,0 c 0,1.42 1.169,2.609 2.589,2.609 1.43,0 2.599,-1.189 2.599,-2.609 0,-1.43 -1.169,-2.589 -2.599,-2.589 -1.42,0 -2.589,1.159 -2.589,2.589 m 9.108,-3.489 3.479,0 c 0.11,0 0.19,0.08 0.19,0.18 l 0,0.43 c 0,0.11 -0.08,0.19 -0.19,0.19 l -1.099,0 0,5.808 c 0,0.1 -0.08,0.19 -0.18,0.19 l -0.49,0 -1.49,-1.349 c -0.04,-0.04 -0.06,-0.12 -0.03,-0.2 l 0.12,-0.35 c 0.03,-0.09 0.13,-0.11 0.22,-0.07 l 0.87,0.44 0,-4.469 -1.4,0 c -0.11,0 -0.19,-0.08 -0.19,-0.19 l 0,-0.43 c 0,-0.1 0.08,-0.18 0.19,-0.18 m 4.799,1.82 c 0,-1.09 0.89,-1.92 2.289,-1.92 1.45,0 2.33,0.83 2.33,1.92 0,0.859 -0.75,1.459 -1.21,1.669 l 0,0.04 c 0.43,0.22 1.03,0.77 1.03,1.54 0,1.099 -0.91,1.829 -2.14,1.829 -1.199,0 -2.119,-0.73 -2.119,-1.829 0,-0.78 0.6,-1.33 1.03,-1.55 l 0,-0.03 c -0.37,-0.17 -1.21,-0.8 -1.21,-1.669 m 2.309,2.139 c -0.779,0.12 -1.119,0.53 -1.119,1.07 0,0.61 0.49,1.049 1.089,1.049 0.66,0 1.15,-0.439 1.15,-1.049 0,-0.53 -0.35,-0.96 -1.12,-1.07 M 47.438,1.57 c 0,0.529 0.46,1.079 1.269,1.199 0.81,-0.12 1.27,-0.67 1.27,-1.199 0,-0.67 -0.57,-1.09 -1.28,-1.09 -0.659,0 -1.259,0.43 -1.259,1.09 m 4.608,0.899 c 0,-1.539 0.76,-2.799 2.36,-2.799 1.209,0 2.229,1.03 2.229,2.289 0,1.38 -1.03,2.17 -2.089,2.17 -0.67,0 -1.25,-0.32 -1.33,-0.37 0.33,1.23 1.92,2.059 2.379,2.209 0.19,0.06 0.23,0.17 0.18,0.29 l -0.17,0.41 c -0.04,0.11 -0.13,0.16 -0.25,0.12 -0.919,-0.35 -3.309,-1.529 -3.309,-4.319 m 2.35,-1.899 c -1.09,0 -1.46,1.14 -1.38,1.979 0.06,0.18 0.58,0.76 1.37,0.76 0.74,0 1.329,-0.61 1.329,-1.36 0,-0.749 -0.579,-1.379 -1.319,-1.379 m 2.999,-0.01 c 0.22,-0.26 0.81,-0.89 2.049,-0.89 1.38,0 2.26,0.82 2.26,1.91 0,0.859 -0.74,1.459 -1.21,1.659 l 0,0.03 c 0.45,0.21 1.03,0.8 1.03,1.57 0,1.119 -0.93,1.829 -2.09,1.829 -1.09,0 -1.849,-0.88 -1.849,-0.88 -0.07,-0.07 -0.08,-0.19 0,-0.259 l 0.37,-0.33 c 0.09,-0.08 0.2,-0.06 0.26,0.02 0.199,0.22 0.559,0.559 1.159,0.559 0.59,0 1.14,-0.419 1.14,-1.089 0,-0.59 -0.47,-1.07 -1.41,-1.07 l -0.56,0 c -0.14,0 -0.2,-0.06 -0.2,-0.21 l 0,-0.43 c 0,-0.14 0.08,-0.21 0.19,-0.21 l 0.56,0 c 1.07,0 1.58,-0.57 1.58,-1.169 0,-0.67 -0.6,-1.08 -1.25,-1.08 -0.74,0 -1.299,0.54 -1.359,0.62 -0.08,0.09 -0.17,0.1 -0.27,0.02 L 57.405,0.8 c -0.07,-0.06 -0.07,-0.17 -0.01,-0.24" />
          </g>
          <g
             transform="translate(251.9886,548.2839)"
             id="g96">
            <path
               inkscape:connector-curvature="0"
               id="path98"
               style="fill:#ffffff;fill-opacity:1;fill-rule:nonzero;stroke:none"
               d="m 0,0 c 0,-0.143 0.114,-0.271 0.271,-0.271 l 1.314,0 c 0.143,0 0.272,0.128 0.272,0.271 l 0,3.356 1.785,0 c 1.742,0 3.185,1.443 3.185,3.214 0,1.728 -1.443,3.156 -3.199,3.156 l -3.357,0 C 0.114,9.726 0,9.597 0,9.455 L 0,0 Z m 1.857,5.099 0,2.87 1.656,0 c 0.8,0 1.471,-0.6 1.471,-1.385 0,-0.843 -0.671,-1.485 -1.471,-1.485 l -1.656,0 z M 7.912,4.713 c 0,-2.856 2.271,-5.127 5.127,-5.127 2.857,0 5.142,2.271 5.142,5.127 0,2.856 -2.285,5.156 -5.142,5.156 -2.856,0 -5.127,-2.3 -5.127,-5.156 m 1.857,0 c 0,1.8 1.471,3.299 3.27,3.299 1.8,0 3.285,-1.499 3.285,-3.299 0,-1.8 -1.485,-3.271 -3.285,-3.271 -1.799,0 -3.27,1.471 -3.27,3.271 M 19.68,0 c 0,-0.143 0.114,-0.271 0.271,-0.271 l 5.228,0 c 0.157,0 0.271,0.128 0.271,0.271 l 0,1.171 c 0,0.143 -0.114,0.271 -0.271,0.271 l -3.642,0 0,8.013 c 0,0.142 -0.129,0.271 -0.272,0.271 l -1.314,0 C 19.794,9.726 19.68,9.597 19.68,9.455 L 19.68,0 Z m 7.641,0 c 0,-0.143 0.128,-0.271 0.271,-0.271 l 1.328,0 c 0.143,0 0.272,0.128 0.272,0.271 l 0,9.455 c 0,0.142 -0.129,0.271 -0.272,0.271 l -1.328,0 c -0.143,0 -0.271,-0.129 -0.271,-0.271 l 0,-9.455 z m 6.127,0 c 0,-0.143 0.128,-0.271 0.271,-0.271 l 1.328,0 c 0.143,0 0.271,0.128 0.271,0.271 l 0,8.012 2.186,0 c 0.157,0 0.271,0.129 0.271,0.271 l 0,1.172 c 0,0.142 -0.114,0.271 -0.271,0.271 l -6.242,0 c -0.157,0 -0.271,-0.129 -0.271,-0.271 l 0,-1.172 c 0,-0.142 0.114,-0.271 0.271,-0.271 l 2.186,0 0,-8.012 z m 5.955,0 c 0,-0.143 0.114,-0.271 0.271,-0.271 l 5.813,0 c 0.157,0 0.271,0.128 0.271,0.271 l 0,1.171 c 0,0.143 -0.114,0.271 -0.271,0.271 l -4.227,0 0,2.5 3.527,0 c 0.143,0 0.272,0.114 0.272,0.271 l 0,1.185 c 0,0.143 -0.129,0.272 -0.272,0.272 l -3.527,0 0,2.342 4.227,0 c 0.157,0 0.271,0.129 0.271,0.271 l 0,1.172 c 0,0.142 -0.114,0.271 -0.271,0.271 l -5.813,0 c -0.157,0 -0.271,-0.129 -0.271,-0.271 l 0,-9.455 z m 7.812,4.713 c 0,-2.856 2.299,-5.127 5.156,-5.127 1.271,0 2.499,0.443 3.47,1.385 0.1,0.1 0.129,0.286 0.015,0.386 L 54.97,2.271 c -0.086,0.086 -0.243,0.1 -0.357,0 -0.6,-0.486 -1.328,-0.814 -2.185,-0.814 -1.828,0 -3.199,1.514 -3.199,3.299 0,1.799 1.357,3.327 3.185,3.327 0.799,0 1.599,-0.314 2.199,-0.842 0.114,-0.114 0.257,-0.114 0.357,0 l 0.871,0.9 c 0.115,0.114 0.115,0.285 -0.014,0.4 -0.971,0.871 -2.014,1.328 -3.456,1.328 -2.857,0 -5.156,-2.3 -5.156,-5.156 M 57.741,0 c 0,-0.143 0.128,-0.271 0.271,-0.271 l 1.3,0 c 0.157,0 0.271,0.128 0.271,0.271 l 0,6.141 0.014,0 5.97,-6.555 0.343,0 c 0.143,0 0.271,0.114 0.271,0.257 l 0,9.612 c 0,0.142 -0.128,0.271 -0.271,0.271 l -1.314,0 c -0.157,0 -0.271,-0.129 -0.271,-0.271 l 0,-5.899 -0.015,0 -5.941,6.313 -0.357,0 c -0.143,0 -0.271,-0.115 -0.271,-0.257 l 0,-9.612 z m 10.897,0 c 0,-0.143 0.128,-0.271 0.271,-0.271 l 1.328,0 c 0.143,0 0.272,0.128 0.272,0.271 l 0,9.455 c 0,0.142 -0.129,0.271 -0.272,0.271 l -1.328,0 c -0.143,0 -0.271,-0.129 -0.271,-0.271 l 0,-9.455 z m 3.741,4.713 c 0,-2.856 2.3,-5.127 5.156,-5.127 1.271,0 2.499,0.443 3.47,1.385 0.1,0.1 0.129,0.286 0.015,0.386 l -0.886,0.914 c -0.085,0.086 -0.242,0.1 -0.357,0 -0.6,-0.486 -1.328,-0.814 -2.185,-0.814 -1.828,0 -3.199,1.514 -3.199,3.299 0,1.799 1.357,3.327 3.185,3.327 0.8,0 1.599,-0.314 2.199,-0.842 0.115,-0.114 0.257,-0.114 0.357,0 l 0.871,0.9 c 0.115,0.114 0.115,0.285 -0.014,0.4 -0.971,0.871 -2.014,1.328 -3.456,1.328 -2.856,0 -5.156,-2.3 -5.156,-5.156 m 9.955,0 c 0,-2.856 2.27,-5.127 5.127,-5.127 2.856,0 5.141,2.271 5.141,5.127 0,2.856 -2.285,5.156 -5.141,5.156 -2.857,0 -5.127,-2.3 -5.127,-5.156 m 1.856,0 c 0,1.8 1.471,3.299 3.271,3.299 1.799,0 3.285,-1.499 3.285,-3.299 0,-1.8 -1.486,-3.271 -3.285,-3.271 -1.8,0 -3.271,1.471 -3.271,3.271" />
          </g>
        </g>
      </g>
    </g>
  </g>
</svg>
