<?xml version="1.0" encoding="UTF-8" standalone="no"?>
<!-- Created with Inkscape (http://www.inkscape.org/) -->

<svg
   xmlns:dc="http://purl.org/dc/elements/1.1/"
   xmlns:cc="http://creativecommons.org/ns#"
   xmlns:rdf="http://www.w3.org/1999/02/22-rdf-syntax-ns#"
   xmlns:svg="http://www.w3.org/2000/svg"
   xmlns="http://www.w3.org/2000/svg"
   xmlns:sodipodi="http://sodipodi.sourceforge.net/DTD/sodipodi-0.dtd"
   xmlns:inkscape="http://www.inkscape.org/namespaces/inkscape"
   width="114.29427mm"
   height="19.720592mm"
   viewBox="0 0 404.97965 69.876115"
   id="svg5798"
   version="1.1"
   inkscape:version="0.91 r13725"
   sodipodi:docname="polimitestobiancolato.svg">
  <defs
     id="defs5800">
    <clipPath
       clipPathUnits="userSpaceOnUse"
       id="clipPath976">
      <path
         d="m 0,0 595.276,0 0,841.89 L 0,841.89 0,0 Z"
         id="path978"
         inkscape:connector-curvature="0" />
    </clipPath>
    <clipPath
       clipPathUnits="userSpaceOnUse"
       id="clipPath960">
      <path
         d="m 0,0 595.276,0 0,841.89 L 0,841.89 0,0 Z"
         id="path962"
         inkscape:connector-curvature="0" />
    </clipPath>
    <clipPath
       clipPathUnits="userSpaceOnUse"
       id="clipPath908">
      <path
         d="m 0,0 595.276,0 0,841.89 L 0,841.89 0,0 Z"
         id="path910"
         inkscape:connector-curvature="0" />
    </clipPath>
    <clipPath
       clipPathUnits="userSpaceOnUse"
       id="clipPath864">
      <path
         d="m 0,0 595.276,0 0,841.89 L 0,841.89 0,0 Z"
         id="path866"
         inkscape:connector-curvature="0" />
    </clipPath>
    <clipPath
       clipPathUnits="userSpaceOnUse"
       id="clipPath836">
      <path
         d="m 0,0 595.276,0 0,841.89 L 0,841.89 0,0 Z"
         id="path838"
         inkscape:connector-curvature="0" />
    </clipPath>
    <clipPath
       clipPathUnits="userSpaceOnUse"
       id="clipPath812">
      <path
         d="m 0,0 595.276,0 0,841.89 L 0,841.89 0,0 Z"
         id="path814"
         inkscape:connector-curvature="0" />
    </clipPath>
    <clipPath
       clipPathUnits="userSpaceOnUse"
       id="clipPath1260">
      <path
         d="m 0,0 595.276,0 0,841.89 L 0,841.89 0,0 Z"
         id="path1262"
         inkscape:connector-curvature="0" />
    </clipPath>
    <clipPath
       clipPathUnits="userSpaceOnUse"
       id="clipPath1136">
      <path
         d="m 0,0 595.276,0 0,841.89 L 0,841.89 0,0 Z"
         id="path1138"
         inkscape:connector-curvature="0" />
    </clipPath>
  </defs>
  <sodipodi:namedview
     id="base"
     pagecolor="#ffffff"
     bordercolor="#666666"
     borderopacity="1.0"
     inkscape:pageopacity="0.0"
     inkscape:pageshadow="2"
     inkscape:zoom="2.8"
     inkscape:cx="186.2835"
     inkscape:cy="75.832861"
     inkscape:document-units="px"
     inkscape:current-layer="layer1"
     showgrid="false"
     fit-margin-top="0"
     fit-margin-left="0"
     fit-margin-right="0"
     fit-margin-bottom="0"
     inkscape:window-width="1600"
     inkscape:window-height="853"
     inkscape:window-x="-2"
     inkscape:window-y="-3"
     inkscape:window-maximized="1" />
  <metadata
     id="metadata5803">
    <rdf:RDF>
      <cc:Work
         rdf:about="">
        <dc:format>image/svg+xml</dc:format>
        <dc:type
           rdf:resource="http://purl.org/dc/dcmitype/StillImage" />
        <dc:title></dc:title>
      </cc:Work>
    </rdf:RDF>
  </metadata>
  <g
     inkscape:label="Layer 1"
     inkscape:groupmode="layer"
     id="layer1"
     transform="translate(-342.16317,-568.0765)">
    <g
       id="g992"
       transform="matrix(1.25,0,0,-1.25,412.03022,604.12094)"
       style="fill:#008080">
      <path
         d="M 0,0 -2.474,0.085 M 0.012,1.307 -2.463,1.268 m 2.426,1.345 -2.47,-0.162 M -0.145,3.9 -2.607,3.646 M -0.315,5.196 -2.761,4.82 M -0.545,6.482 -2.97,5.986 M -0.836,7.755 -3.234,7.14 m 2.048,1.873 -2.365,-0.731 m 1.962,1.956 -2.337,-0.816 m 1.871,2.036 -2.295,-0.929 m 1.772,2.124 -2.247,-1.037 m 1.669,2.207 -2.195,-1.144 m 1.564,2.285 -2.139,-1.247 m 1.455,2.357 -2.077,-1.347 m 1.343,2.425 -2.011,-1.444 m 1.227,2.485 -1.941,-1.537 m 1.11,2.542 -1.866,-1.627 m 0.989,2.591 -1.787,-1.712 m 0.866,2.636 -1.704,-1.795 m 0.742,2.674 -1.618,-1.874 m 0.627,2.699 -1.55,-1.93 m 0.51,2.717 -1.457,-2.001 m 0.381,2.738 -1.359,-2.068 m 0.25,2.755 -1.259,-2.131 m 0.119,2.766 -1.155,-2.19 m -0.014,2.77 -1.048,-2.243 m -0.148,2.768 -0.937,-2.291 m -0.282,2.759 -0.824,-2.334 m -0.416,2.745 -0.708,-2.372 m -0.535,2.719 -0.62,-2.396 m -0.654,2.689 -0.5,-2.424 m -0.786,2.657 -0.378,-2.446 m -0.902,2.618 -0.287,-2.459 m -1.015,2.572 -0.164,-2.47 m -1.143,2.524 -0.038,-2.475 m -1.254,2.469 0.055,-2.474 m -1.361,2.407 0.18,-2.468 m -1.482,2.341 0.304,-2.457 m -1.597,2.268 0.426,-2.438 m -1.694,2.193 0.517,-2.421 m -1.787,2.112 0.637,-2.392 m -1.89,2.024 0.754,-2.358 m -1.989,1.932 0.869,-2.318 m -2.082,1.834 0.981,-2.272 m -2.156,1.739 1.063,-2.235 m -2.225,1.641 1.17,-2.181 m -2.303,1.534 1.273,-2.123 m -2.374,1.423 1.373,-2.059 m -2.441,1.309 1.471,-1.991 m -2.502,1.193 1.564,-1.919 m -2.557,1.074 1.653,-1.842 m -2.607,0.951 1.74,-1.761 m -2.64,0.838 1.801,-1.697 m -2.668,0.723 1.88,-1.61 m -2.701,0.595 1.956,-1.517 m -2.729,0.466 2.027,-1.422 m -2.75,0.335 2.093,-1.322 m -2.764,0.203 2.154,-1.219 m -2.773,0.069 2.211,-1.113 m -2.769,-0.051 2.251,-1.03 m -2.759,-0.173 2.299,-0.919 m -2.751,-0.308 2.342,-0.803 m -2.735,-0.443 2.379,-0.685 m -2.714,-0.579 2.41,-0.565 m -2.681,-0.698 2.429,-0.474 m -2.645,-0.816 2.451,-0.351 m -2.606,-0.947 2.465,-0.227 m -2.56,-1.063 2.472,-0.132 m -2.507,-1.175 2.475,-0.007 m -2.451,-1.301 2.473,0.118 m -2.388,-1.407 2.466,0.211 m -2.32,-1.51 2.452,0.335 m -2.245,-1.626 2.432,0.457 m -2.169,-1.721 2.414,0.547 m -2.087,-1.812 2.384,0.666 m -1.998,-1.915 2.348,0.784 m -1.905,-2.012 2.307,0.898 m -1.806,-2.104 2.261,1.009 m -1.705,-2.189 2.209,1.117 m -1.598,-2.27 2.153,1.222 m -1.497,-2.333 2.108,1.299 m -1.393,-2.39 2.043,1.398 m -1.278,-2.455 1.974,1.494 m -1.161,-2.514 1.9,1.587 m -1.041,-2.568 1.822,1.675 m -0.918,-2.616 1.74,1.761 m -0.793,-2.658 1.654,1.841 m -0.667,-2.694 1.564,1.919 m -0.55,-2.716 1.494,1.974 m -0.431,-2.732 1.397,2.044 m -0.301,-2.751 1.297,2.108 m -0.168,-2.764 1.193,2.169 m -0.034,-2.771 1.085,2.225 m 0.101,-2.772 0.974,2.275 m 0.222,-2.761 0.89,2.31 m 0.343,-2.744 0.774,2.352 m 0.478,-2.727 0.655,2.387 m 0.613,-2.704 0.535,2.417 m 0.732,-2.671 0.443,2.435 m 0.85,-2.632 0.32,2.454 m 0.981,-2.592 0.195,2.468 m 1.095,-2.545 0.101,2.474 m 1.207,-2.491 -0.025,2.475 m 1.332,-2.432 -0.149,2.471 m 1.437,-2.369 -0.243,2.464 m 1.54,-2.299 -0.366,2.448 m 1.653,-2.224 -0.487,2.427 m 1.763,-2.142 -0.608,2.4 m 1.853,-2.059 -0.696,2.375 m 1.939,-1.972 -0.812,2.338 m 2.033,-1.877 -0.925,2.296 m 2.124,-1.779 -1.036,2.249 m 2.209,-1.676 -1.143,2.196 m 2.287,-1.569 -1.247,2.138 m 2.361,-1.459 -1.348,2.076 m 2.417,-1.354 -1.422,2.026 m 2.468,-1.247 -1.517,1.956 m 2.526,-1.129 -1.609,1.881 m 2.578,-1.008 -1.697,1.802 m 2.625,-0.886 -1.781,1.719 m 2.666,-0.76 -1.861,1.632 m 2.7,-0.633 -1.937,1.541 m 2.729,-0.504 -2.009,1.446 m 2.743,-0.385 -2.06,1.372 m 2.752,-0.266 -2.123,1.272 m 2.763,-0.134 -2.183,1.167 m 2.769,0 -2.238,1.059 m 2.769,0.135 -2.287,0.947 m 2.761,0.271 -2.331,0.832 m 2.743,0.392 -2.361,0.744 m 2.719,0.513 -2.395,0.626 m 2.693,0.647 -2.423,0.504 m 2.663,0.782 -2.446,0.381 m 2.622,0.899 -2.458,0.288 m 2.577,1.014 -2.469,0.164"
         style="fill:#008080;stroke:#ffffff;stroke-width:0.463;stroke-linecap:butt;stroke-linejoin:miter;stroke-miterlimit:10;stroke-dasharray:none;stroke-opacity:1"
         id="path994"
         inkscape:connector-curvature="0" />
    </g>
    <g
       transform="matrix(1.25,0,0,-1.25,170.84397,919.05232)"
       id="g1132"
       style="fill:none">
      <g
         id="g1134"
         clip-path="url(#clipPath1136)"
         style="fill:none">
        <g
           id="g1140"
           transform="translate(162.0595,258.4475)"
           style="fill:none">
          <path
             d="m 0,0 c -0.195,0.145 -0.996,-0.055 -1.093,0.193 -0.095,0.246 -0.243,0.306 -0.766,0.679 -0.521,0.377 0.046,0.85 0.179,0.882 0.133,0.033 0.079,0.119 0.079,0.119 0,0.065 0.116,0.217 0.309,0.397 0.192,0.178 0.107,0.155 0.149,0.716 0.041,0.549 0.298,0.683 0.298,0.683 -0.127,0.632 0.194,1.117 0.194,1.117 -0.007,0.375 0.574,0.731 0.574,0.731 0.323,0.665 0.951,0.404 0.951,0.404 0.311,0.132 0.522,0.228 0.522,0.228 0,0 0.302,-0.022 0.417,0.021 0.113,0.045 0.378,0.091 0.527,0.052 0,0 0.238,0.014 0.395,-0.237 0,0 0.346,-0.028 0.396,-0.211 0.05,-0.186 0.467,-0.097 0.41,-0.519 0,0 0.243,-0.338 0.251,-0.531 C 3.8,4.55 4.087,4.607 4.173,4.272 4.181,4.237 4.188,4.199 4.192,4.155 c 0,0 0.069,-0.36 0.142,-0.492 C 4.408,3.524 4.338,3.389 4.377,3.366 4.416,3.345 4.696,3.125 4.69,3.024 4.684,2.924 4.64,2.706 4.64,2.706 c 0,0 0.258,-0.26 0.17,-0.535 C 4.722,1.893 5.01,1.632 4.651,1.364 4.334,1.121 4.228,1.003 4.255,0.955 4.177,1.007 3.87,1.094 3.87,1.094 c 0,0 -0.117,0.041 -0.212,0.093 C 3.562,1.24 3.486,1.336 3.468,1.372 3.431,1.443 3.314,1.463 3.344,2.146 L 3.291,2.247 c 0.188,0.095 0.376,0.214 0.556,0.363 0.16,0.134 0,0.658 0.003,0.716 C 3.854,3.388 3.768,3.807 3.763,3.897 3.759,3.962 3.667,4.242 3.604,4.413 3.579,4.483 3.558,4.534 3.55,4.547 3.522,4.59 3.318,4.883 3.31,4.934 3.304,4.985 3.281,5.127 3.119,5.27 2.955,5.41 2.687,5.496 2.629,5.539 2.572,5.586 2.266,5.856 2.266,5.856 1.469,6.045 1.059,5.766 0.894,5.707 0.729,5.645 0.424,5.119 0.372,4.746 0.319,4.377 0.529,4.174 0.67,3.993 0.81,3.811 0.942,3.482 0.93,3.269 0.917,3.06 0.982,2.642 1.152,2.26 1.199,2.151 1.241,2.025 1.274,1.896 1.359,1.569 1.39,1.226 1.325,1.108 1.234,0.941 1.21,0.546 1.199,0.356 1.188,0.166 0.855,-0.015 0.821,-0.053 0.821,-0.053 0.194,-0.143 0,0"
             style="fill:none;fill-opacity:1;fill-rule:nonzero;stroke:none"
             id="path1142"
             inkscape:connector-curvature="0" />
        </g>
        <g
           id="g1144"
           transform="translate(155.0056,269.2284)"
           style="fill:none">
          <path
             d="M 0,0 C -0.134,0.353 0.563,0.762 0.561,0.78 0.533,1.216 1.119,1.181 1.119,1.181 1.141,1.544 1.874,1.432 1.874,1.432 2.22,1.856 2.22,1.87 2.22,1.87 2.597,2.075 3.962,1.926 3.962,1.926 4.929,2.083 4.985,1.69 4.985,1.69 5.667,1.633 5.907,1.352 5.907,1.352 6.104,1.514 6.386,1.242 6.386,1.242 6.995,1.08 7.072,0.581 7.072,0.581 7.799,0.364 7.462,-0.101 7.462,-0.101 7.883,-0.49 7.482,-0.68 7.462,-0.774 7.444,-0.866 7.446,-1.041 7.065,-1.099 6.942,-1.118 6.8,-1.078 6.656,-1.013 6.354,-0.877 6.042,-0.63 5.872,-0.583 5.62,-0.515 5.66,-0.4 5.66,-0.4 5.494,-0.361 5.516,-0.514 5.436,-0.272 l -0.11,0.018 c 0,0 0.041,-0.434 -0.144,-0.613 C 4.996,-1.044 4.93,-1.04 4.808,-1.032 4.687,-1.025 4.417,-1.29 4.249,-1.39 4.081,-1.487 3.998,-1.521 3.904,-1.53 3.81,-1.536 3.609,-1.956 3.39,-1.794 c 0,0 -0.162,0.197 -0.307,0.059 C 2.941,-1.874 2.6,-1.964 2.378,-1.84 2.156,-1.72 1.809,-1.673 1.74,-1.48 1.696,-1.357 1.371,-1.252 1.135,-1.101 L 1.076,-1.13 c -0.144,0.295 -0.363,0.572 -0.667,0.808 -0.141,0.109 -0.288,0.198 -0.434,0.271 L 0,-0.001 0,0 Z"
             style="fill:none;fill-opacity:1;fill-rule:nonzero;stroke:none"
             id="path1146"
             inkscape:connector-curvature="0" />
        </g>
        <g
           id="g1148"
           transform="translate(156.9583,261.7407)"
           style="fill:none">
          <path
             d="M 0,0 C -0.01,0.39 0.164,0.723 0.262,0.879 0.422,1.136 0.887,1.21 0.887,1.21 L 1.321,1.095 1.749,0.982 2.012,1.014 c 0,0 0.653,-0.099 0.733,-0.104 C 2.827,0.906 3.419,0.796 3.419,0.796 3.476,0.632 3.126,0.512 3.126,0.512 L 2.493,0.408 2.689,0.086 C 2.886,-0.234 2.453,-0.49 2.453,-0.49 2.578,-1.099 2.19,-1.283 2.19,-1.283 1.594,-1.684 1.02,-1.336 0.599,-1.096 0.494,-1.037 0.4,-0.983 0.316,-0.95 -0.105,-0.784 0.009,-0.391 0,0"
             style="fill:none;fill-opacity:1;fill-rule:nonzero;stroke:none"
             id="path1150"
             inkscape:connector-curvature="0" />
        </g>
        <g
           id="g1152"
           transform="translate(157.2162,246.6385)"
           style="fill:none">
          <path
             d="m 0,0 0,0.001 c 0.381,0.019 0.851,0.151 1.416,0.493 0,0 0.385,0.261 0.695,0.752 l 0,0 0.04,-0.026 C 3.516,1.401 3.769,3.038 3.815,3.574 L 3.697,2.823 c 0,0 -0.308,-1.141 -0.272,-1.098 C 3.292,1.22 3.363,1.2 2.966,0.153 2.856,-0.137 2.403,-1.202 2.313,-1.344 l -1.3,-1.34 -0.118,0.118 C 0.636,-1.76 0.664,-1.881 0.63,-1.634 0.572,-1.225 0.004,-0.063 0.004,-0.063 L 0,0 Z"
             style="fill:none;fill-opacity:1;fill-rule:nonzero;stroke:none"
             id="path1154"
             inkscape:connector-curvature="0" />
        </g>
        <g
           id="g1156"
           transform="translate(154.6334,261.9001)"
           style="fill:none">
          <path
             d="m 0,0 c -0.156,0.248 -0.026,0.699 -0.026,0.699 l -0.045,0.089 0.807,0.405 c 0,0 1.202,0.418 1.86,0.711 l 10e-4,0 0.195,-0.053 c 0,0 0.798,-0.567 0.873,-0.846 l 0,0 L 3.646,0.936 3.212,1.051 c 0,0 -0.516,-0.184 -0.625,-0.331 C 2.476,0.572 2.314,0.231 2.325,-0.159 2.334,-0.551 2.22,-0.944 2.641,-1.11 2.725,-1.143 2.819,-1.196 2.924,-1.255 L 2.907,-1.297 c 0,0 -1.14,0.044 -1.257,0.054 C 0.411,-1.151 0,0 0,0"
             style="fill:none;fill-opacity:1;fill-rule:nonzero;stroke:none"
             id="path1158"
             inkscape:connector-curvature="0" />
        </g>
        <g
           id="g1160"
           transform="translate(155.7637,265.6051)"
           style="fill:none">
          <path
             d="m 0,0 c 0.174,0.251 0.333,0.549 0.434,0.87 0.16,0.509 0.142,1.095 -0.116,1.623 l 0.059,0.03 C 0.613,2.372 0.938,2.266 0.982,2.143 1.051,1.951 1.398,1.903 1.62,1.783 1.842,1.659 2.183,1.749 2.325,1.888 2.47,2.027 2.632,1.829 2.632,1.829 2.851,1.667 3.051,2.087 3.146,2.093 3.24,2.102 3.323,2.136 3.491,2.233 3.659,2.333 3.929,2.598 4.05,2.591 4.171,2.583 4.238,2.58 4.424,2.756 4.609,2.936 4.568,3.37 4.568,3.37 l 0.143,0.092 c 0.01,-0.016 0.084,-0.2 0.25,-0.238 0,0 -0.1,-0.116 0.152,-0.184 C 5.284,2.993 5.596,2.746 5.898,2.61 l 0,0 -0.02,-0.042 c 0,0 -0.076,-0.082 -0.151,-0.278 C 5.656,2.092 5.257,1.166 5.171,0.727 5.082,0.29 4.78,0.63 4.78,0.63 4.768,0.616 4.647,0.472 4.567,0.42 4.482,0.366 4.24,0.359 4.24,0.359 4.24,0.359 4.107,0.185 4.046,0.169 3.985,0.154 3.855,0.018 3.85,-0.061 3.846,-0.14 3.84,-0.242 3.657,-0.272 3.473,-0.301 2.965,-0.029 2.965,-0.029 L 2.195,0.389 2.085,0.449 0.13,-0.058 0,0 Z"
             style="fill:none;fill-opacity:1;fill-rule:nonzero;stroke:none"
             id="path1162"
             inkscape:connector-curvature="0" />
        </g>
        <g
           id="g1164"
           transform="translate(149.0177,250.4077)"
           style="fill:none">
          <path
             d="M 0,0 C -0.257,0.203 -0.134,0.464 -0.171,1.19 -0.208,1.92 1.047,2.196 1.371,2.228 1.697,2.265 3.008,2.591 3.008,2.591 L 4.28,3.134 4.294,3.146 C 4.323,3.107 4.354,3.075 4.382,3.051 4.517,2.945 4.667,2.754 4.801,2.644 4.937,2.536 5.18,2.562 5.322,2.572 5.464,2.585 5.717,2.771 5.717,2.771 5.823,2.824 5.812,3.007 5.82,3.149 c 0.009,0.14 0.07,0.479 0.096,0.579 0.023,0.09 0.125,0.357 0.143,0.406 l 0,10e-4 C 6.151,4.253 6.391,4.319 6.449,4.354 6.511,4.389 6.608,4.485 6.678,4.49 6.75,4.495 6.965,4.372 6.965,4.372 c 0,0 0.357,-0.103 0.77,0.034 0.163,0.054 0.199,0.116 0.177,0.174 l 0.007,0.003 c 0,0 1.446,-0.375 2.073,-0.811 0.01,-0.008 0.019,-0.014 0.028,-0.021 l 0,-10e-4 -0.019,-0.027 c 0,0 0.43,-0.166 0.593,-0.825 0.03,-0.121 0.105,-0.159 0.193,-0.25 0.107,-0.11 0.003,-0.113 0.113,-0.238 0.18,-0.205 0.374,-0.362 0.489,-0.523 0.121,-0.169 0.198,-0.47 0.25,-0.525 l 0.022,0 c 0.117,-0.452 0.23,-1.025 0.23,-1.025 l 0.123,-0.531 c 0,0 0,-0.001 -10e-4,-0.002 -0.046,-0.535 -0.298,-2.172 -1.663,-2.353 l -0.04,0.026 -0.001,0 C 9.999,-3.014 9.615,-3.275 9.615,-3.275 9.05,-3.617 8.579,-3.749 8.199,-3.768 l 0,-0.001 c -0.848,-0.044 -1.25,0.471 -1.25,0.471 l -0.153,0.027 c 0.185,0.377 0.469,0.993 0.484,1.246 0,0 0.95,0.129 0.978,0.586 0.027,0.455 0.364,1.135 -2.375,2.136 0,0 -0.813,-0.545 -1.214,-1.381 C 4.468,-1.106 4.262,-1.604 4.113,-2.179 L 4.016,-2.153 C 3.402,-1.788 2.079,-0.424 1.486,0.201 L 1.486,0.2 1.465,0.181 c 0,0 -0.506,-0.246 -0.954,-0.538 l -0.019,0.03 c 0,0 -0.235,0.121 -0.492,0.327"
             style="fill:none;fill-opacity:1;fill-rule:nonzero;stroke:none"
             id="path1166"
             inkscape:connector-curvature="0" />
        </g>
        <g
           id="g1168"
           transform="translate(152.916,246.2977)"
           style="fill:none">
          <path
             d="M 0,0 C -0.023,0.722 0.068,1.364 0.215,1.931 0.364,2.506 0.57,3.004 0.771,3.426 1.172,4.262 1.985,4.807 1.985,4.807 4.723,3.806 4.386,3.126 4.359,2.671 4.332,2.214 3.382,2.085 3.382,2.085 3.367,1.832 3.083,1.216 2.898,0.839 2.807,0.655 2.741,0.528 2.741,0.528 L 2.35,-0.268 c 0,0 -0.54,-1.279 -0.577,-1.539 -0.036,-0.261 0.415,-0.318 0.584,-0.358 0.169,-0.04 0.665,-0.353 0.722,-0.406 0.057,-0.054 0.375,-0.346 0.4,-0.416 0.026,-0.074 0.15,-0.173 0.15,-0.173 0.129,-0.056 0.38,-0.245 0.38,-0.245 0,0 0.574,-0.71 0.63,-0.773 0.057,-0.063 0.11,-0.168 0.067,-0.227 C 4.663,-4.462 4.541,-4.476 4.541,-4.476 L 3.773,-3.986 3.21,-3.77 c 0.251,-0.197 0.522,-0.728 0.522,-0.728 0,0 0.185,-0.435 0.274,-0.652 C 4.092,-5.367 3.969,-5.422 3.865,-5.464 3.762,-5.51 3.602,-5.326 3.602,-5.326 l -0.322,0.542 -0.612,0.816 0.124,-0.373 0.132,-0.33 0.159,-0.545 c 0,0 0.108,-0.38 0.143,-0.474 C 3.261,-5.782 3.186,-5.837 3.134,-5.883 3.08,-5.932 2.893,-5.841 2.893,-5.841 L 2.274,-4.553 C 2.274,-4.564 2.266,-4.69 2.257,-4.843 2.247,-5.005 1.875,-5.163 1.802,-5.18 1.732,-5.193 1.619,-5.23 1.542,-5.324 1.465,-5.421 1.398,-5.368 1.398,-5.368 c -0.147,0.08 -0.072,0.298 -0.051,0.335 0.023,0.041 0.242,0.16 0.297,0.218 0.054,0.057 -0.051,0.336 -0.087,0.416 -0.035,0.084 -0.404,0.317 -0.453,0.362 -0.047,0.041 -0.461,0.39 -0.461,0.39 -0.344,0.284 -0.49,1.036 -0.562,1.912 l 0,0.001 C 0.034,-1.176 0.018,-0.568 0,0"
             style="fill:none;fill-opacity:1;fill-rule:nonzero;stroke:none"
             id="path1170"
             inkscape:connector-curvature="0" />
        </g>
        <g
           id="g1172"
           transform="translate(153.4662,262.1763)"
           style="fill:none">
          <path
             d="m 0,0 c -0.048,0.201 0.026,0.222 0.026,0.222 0.468,0.417 0.69,1.412 0.837,1.846 0.147,0.436 0.433,0.5 0.724,0.644 0.174,0.087 0.457,0.351 0.711,0.717 L 2.428,3.371 4.383,3.878 4.493,3.818 4.478,3.792 c 0,0 0.091,-0.724 -0.311,-1.207 l 0.001,0 0.055,-0.031 c 0,0 0.008,-0.505 -0.041,-0.684 C 4.168,1.822 4.002,1.733 3.764,1.627 l -10e-4,0 C 3.105,1.334 1.903,0.917 1.903,0.917 L 1.096,0.512 0.073,-0.002 0,0 Z"
             style="fill:none;fill-opacity:1;fill-rule:nonzero;stroke:none"
             id="path1174"
             inkscape:connector-curvature="0" />
        </g>
        <g
           id="g1176"
           transform="translate(149.0935,265.8105)"
           style="fill:none">
          <path
             d="m 0,0 c -0.638,0.806 -0.152,1.505 0.755,2.499 0.806,0.883 3.257,1.133 3.8,1.174 l 0.001,0.02 C 4.801,3.686 5.344,3.638 5.887,3.367 6.033,3.294 6.181,3.205 6.321,3.096 6.625,2.859 6.844,2.582 6.988,2.288 7.246,1.759 7.264,1.174 7.104,0.665 7.004,0.343 6.844,0.045 6.67,-0.205 6.417,-0.571 6.133,-0.836 5.96,-0.922 5.669,-1.066 5.382,-1.13 5.236,-1.566 5.089,-2 4.867,-2.996 4.399,-3.413 c 0,0 -0.075,-0.02 -0.026,-0.221 0.014,-0.059 0.039,-0.132 0.079,-0.226 0.177,-0.414 0.755,-1.538 0.744,-2.387 -0.01,-0.848 0.143,-1.662 0.346,-2.32 0.204,-0.659 0.599,-1.45 0.761,-1.46 0.16,-0.009 0.477,-0.107 0.591,-0.239 0.113,-0.126 0.547,-0.313 0.665,-0.362 0.072,-0.028 0.243,-0.106 0.277,-0.195 0.023,-0.058 -0.014,-0.119 -0.177,-0.174 -0.413,-0.137 -0.77,-0.034 -0.77,-0.034 0,0 -0.215,0.123 -0.287,0.118 -0.07,-0.005 -0.167,-0.101 -0.229,-0.136 -0.058,-0.035 -0.298,-0.101 -0.389,-0.219 0,0 0,0 0,-10e-4 -0.019,-0.049 -0.121,-0.316 -0.144,-0.406 -0.026,-0.099 -0.087,-0.439 -0.095,-0.578 -0.009,-0.142 0.002,-0.326 -0.104,-0.379 0,0 -0.253,-0.186 -0.395,-0.199 -0.142,-0.01 -0.385,-0.036 -0.52,0.073 -0.135,0.109 -0.285,0.3 -0.42,0.407 -0.028,0.023 -0.058,0.055 -0.087,0.094 -0.113,0.148 -0.217,0.403 -0.165,0.751 0.067,0.441 0.33,0.786 0.336,0.889 0.006,0.099 -0.482,1.381 -0.482,1.381 0,0 -0.748,1.011 -0.873,1.263 -0.096,0.185 -0.52,0.649 -0.804,1.73 -0.097,0.37 -0.178,0.811 -0.223,1.338 0,0 -0.106,0.306 -0.081,0.872 0.005,0.122 0.016,0.257 0.036,0.402 0.108,0.822 0.073,1.894 0.085,2.096 0.003,0.049 0.013,0.147 0.028,0.276 L 1.984,-1.248 C 1.323,-1.492 0.637,-0.804 0,0"
             style="fill:none;fill-opacity:1;fill-rule:nonzero;stroke:none"
             id="path1178"
             inkscape:connector-curvature="0" />
        </g>
        <g
           id="g1180"
           transform="translate(146.223,250.5996)"
           style="fill:none">
          <path
             d="M 0,0 C -0.018,0.079 0.051,0.428 0.143,0.855 0.292,1.542 0.501,2.43 0.506,2.716 0.514,3.181 0.13,5.183 0.129,6.532 c 0,1.353 0.826,2.206 0.826,2.206 L 0.957,8.775 C 3.087,8.652 5.08,8.962 5.08,8.962 L 5.101,8.968 C 5.385,7.887 5.81,7.423 5.905,7.238 6.03,6.986 6.778,5.975 6.778,5.975 c 0,0 0.489,-1.282 0.482,-1.382 C 7.254,4.491 6.991,4.146 6.925,3.705 6.872,3.357 6.976,3.102 7.089,2.954 L 7.075,2.943 5.803,2.399 c 0,0 -1.311,-0.326 -1.637,-0.362 C 3.842,2.004 2.587,1.728 2.624,0.998 2.661,0.272 2.537,0.011 2.795,-0.192 3.051,-0.398 3.286,-0.519 3.286,-0.519 l 0.02,-0.03 C 3.081,-0.695 2.872,-0.853 2.746,-0.999 2.418,-1.378 2.147,-1.804 2.069,-2.175 l -0.066,0.01 c 0,0 -0.879,0.59 -1.014,0.599 -0.064,0.003 -0.297,0.043 -0.553,0.077 l 0.01,0.076 0,0.001 C 0.043,-0.858 0.045,-0.188 0,0"
             style="fill:none;fill-opacity:1;fill-rule:nonzero;stroke:none"
             id="path1182"
             inkscape:connector-curvature="0" />
        </g>
        <g
           id="g1184"
           transform="translate(144.2299,259.931)"
           style="fill:none">
          <path
             d="M 0,0 C -0.749,1.142 -0.269,1.598 -0.202,1.655 0.098,1.369 0.511,1.081 0.986,1.146 1.802,1.261 2.707,1.567 3.133,1.261 3.558,0.952 4.28,0.182 5.12,0.738 5.724,1.136 6.286,1.536 6.555,1.73 6.661,1.807 6.721,1.85 6.721,1.85 L 6.79,1.847 C 6.766,1.281 6.871,0.975 6.871,0.975 6.916,0.448 6.997,0.006 7.094,-0.363 L 7.073,-0.369 c 0,0 -1.993,-0.31 -4.123,-0.187 -0.549,0.032 -1.109,0.092 -1.645,0.195 -0.3,0.057 -0.593,0.127 -0.873,0.213 l 0,0 C 0.284,-0.103 0.14,-0.054 0,0"
             style="fill:none;fill-opacity:1;fill-rule:nonzero;stroke:none"
             id="path1186"
             inkscape:connector-curvature="0" />
        </g>
        <g
           id="g1188"
           transform="translate(143.5788,262.0627)"
           style="fill:none">
          <path
             d="m 0,0 c -0.192,0.173 -0.346,0.95 -0.134,1.139 0.214,0.19 0.823,0.92 0.823,0.92 0.951,1.719 1.933,1.942 1.933,1.942 L 2.685,3.99 C 2.567,3.314 2.486,2.4 2.476,2.235 2.464,2.032 3.019,1.193 3.292,1.012 3.564,0.835 4.155,0.6 4.395,0.585 4.638,0.571 5.78,0.1 5.978,0.047 l 1.188,-0.394 0.04,-0.055 C 6.937,-0.595 6.375,-0.996 5.771,-1.394 4.931,-1.95 4.209,-1.18 3.784,-0.871 3.358,-0.565 2.453,-0.871 1.637,-0.986 1.162,-1.051 0.749,-0.763 0.45,-0.477 0.236,-0.274 0.08,-0.072 0,0"
             style="fill:none;fill-opacity:1;fill-rule:nonzero;stroke:none"
             id="path1190"
             inkscape:connector-curvature="0" />
        </g>
        <g
           id="g1192"
           transform="translate(145.5223,245.9872)"
           style="fill:none">
          <path
             d="M 0,0 C -1.4,-0.026 -0.96,1.482 -0.9,2.044 -0.84,2.607 0.108,3.141 0.407,3.176 0.56,3.195 0.863,3.161 1.136,3.124 1.392,3.089 1.625,3.05 1.69,3.046 1.825,3.038 2.704,2.447 2.704,2.447 L 2.77,2.437 C 2.758,2.384 2.751,2.333 2.748,2.282 2.724,1.882 3.08,1.538 3.235,1.418 L 3.232,1.391 C 2.838,1.429 2.377,1.418 2.267,1.425 2.078,1.437 1.048,0.85 0.871,0.618 0.849,0.589 0.819,0.558 0.784,0.525 0.533,0.297 0,0 0,0"
             style="fill:none;fill-opacity:1;fill-rule:nonzero;stroke:none"
             id="path1194"
             inkscape:connector-curvature="0" />
        </g>
        <g
           id="g1196"
           transform="translate(147.0385,237.9258)"
           style="fill:none">
          <path
             d="m 0,0 c -0.006,0.051 -0.59,1.058 -0.628,1.304 -0.039,0.244 0.402,1.323 0.619,1.793 0.216,0.473 0.22,0.982 0.236,1.253 0.016,0.266 0.244,0.47 0.244,0.47 L 0.513,4.871 C 0.534,4.851 0.556,4.832 0.578,4.813 1.628,3.916 2.535,2.892 3.765,2.307 4.995,1.718 7.703,0.644 7.993,0.544 8.054,0.523 8.168,0.481 8.311,0.423 L 8.316,0.436 8.899,0.382 c 2.39,-0.088 2.506,0.952 2.966,1.897 0.059,0.12 0.101,0.234 0.132,0.342 l 0.089,-0.026 c 0,0 0.272,-0.339 0.557,-0.82 0.283,-0.481 0.113,-1.461 0.083,-1.801 -0.029,-0.343 -0.245,-0.38 -0.721,-0.926 C 11.528,-1.501 10.43,-1.292 9.924,-1.151 9.417,-1.01 8.231,-0.758 7.56,-0.685 6.886,-0.618 5.534,0.201 5.198,0.353 4.864,0.504 3.308,1.81 3.127,1.982 2.945,2.154 2.507,2.249 2.327,2.283 2.147,2.315 1.01,1.513 0.914,1.447 0.819,1.381 0.67,1.262 0.622,1.131 0.574,1.005 0.63,0.93 0.685,0.805 0.738,0.68 0.869,0.684 0.969,0.647 1.065,0.612 1.255,0.548 1.363,0.513 1.471,0.476 1.167,0.11 1.105,0.083 1.043,0.057 1.057,-0.054 1.052,-0.134 1.047,-0.215 0.882,-0.259 0.821,-0.272 0.759,-0.289 0.579,-0.258 0.529,-0.264 0.478,-0.272 0.228,-0.237 0.198,-0.226 0.169,-0.216 0.007,-0.053 0,0"
             style="fill:none;fill-opacity:1;fill-rule:nonzero;stroke:none"
             id="path1198"
             inkscape:connector-curvature="0" />
        </g>
        <g
           id="g1200"
           transform="translate(146.0551,264.2977)"
           style="fill:none">
          <path
             d="M 0,0 C 0.01,0.165 0.091,1.079 0.209,1.755 0.235,1.907 0.263,2.047 0.292,2.163 0.45,2.798 0.989,3.009 1.365,3.228 1.741,3.45 2.154,4.271 2.572,4.53 c 0.42,0.257 1.523,0.472 2.382,0.664 0.859,0.19 2.504,0.011 2.504,0.011 0,0 0.05,0.003 0.136,0 L 7.593,5.186 C 7.05,5.145 4.6,4.895 3.793,4.012 2.886,3.018 2.4,2.319 3.038,1.513 3.676,0.709 4.362,0.021 5.022,0.265 L 5.115,0.254 C 5.099,0.124 5.09,0.026 5.087,-0.022 5.075,-0.224 5.11,-1.296 5.001,-2.118 4.982,-2.263 4.97,-2.398 4.965,-2.52 l -0.07,0.004 c 0,0 -0.06,-0.044 -0.165,-0.121 L 4.69,-2.582 3.502,-2.188 C 3.304,-2.135 2.161,-1.664 1.919,-1.65 1.679,-1.635 1.088,-1.4 0.816,-1.223 0.543,-1.042 -0.012,-0.203 0,0"
             style="fill:none;fill-opacity:1;fill-rule:nonzero;stroke:none"
             id="path1202"
             inkscape:connector-curvature="0" />
        </g>
        <g
           id="g1204"
           transform="translate(146.9554,245.2037)"
           style="fill:none">
          <path
             d="m 0,0 c 0.396,-0.393 1.379,-1.028 2.573,-1.099 1.31,-0.079 2.696,-0.269 3.468,0.458 0.073,-0.876 0.218,-1.628 0.563,-1.911 0,0 0.414,-0.35 0.461,-0.391 0.048,-0.045 0.418,-0.278 0.453,-0.362 0.035,-0.08 0.14,-0.359 0.086,-0.416 C 7.55,-3.779 7.331,-3.898 7.308,-3.939 7.286,-3.976 7.211,-4.194 7.359,-4.274 c 0,0 0.067,-0.053 0.144,0.044 0.076,0.094 0.189,0.131 0.26,0.144 0.072,0.017 0.445,0.175 0.455,0.337 0.009,0.153 0.016,0.279 0.017,0.29 l 0.618,-1.288 c 0,0 0.188,-0.091 0.241,-0.042 0.053,0.046 0.127,0.101 0.093,0.193 -0.035,0.094 -0.144,0.474 -0.144,0.474 l -0.158,0.545 -0.132,0.33 -0.125,0.373 0.613,-0.816 0.321,-0.542 c 0,0 0.16,-0.184 0.264,-0.138 0.103,0.043 0.226,0.097 0.141,0.314 -0.089,0.217 -0.275,0.652 -0.275,0.652 0,0 -0.271,0.531 -0.522,0.728 l 0.563,-0.216 0.768,-0.49 c 0,0 0.122,0.014 0.166,0.071 0.043,0.059 -0.011,0.164 -0.067,0.227 -0.057,0.063 -0.631,0.773 -0.631,0.773 0,0 -0.251,0.189 -0.379,0.245 0,0 -0.124,0.099 -0.151,0.173 -0.024,0.07 -0.342,0.362 -0.399,0.416 -0.057,0.053 -0.554,0.366 -0.722,0.406 -0.169,0.04 -0.62,0.097 -0.584,0.358 0.037,0.26 0.577,1.539 0.577,1.539 l 0.39,0.796 c 0,0 0.067,0.127 0.158,0.311 L 9.011,1.906 c 0,0 0.402,-0.515 1.25,-0.471 l 0.004,-0.064 c 0,0 0.568,-1.161 0.626,-1.57 0.034,-0.247 0.35,-1.269 0.608,-2.074 0.167,-0.52 0.309,-0.95 0.336,-1.024 0.057,-0.158 0.404,-0.568 0.276,-1.228 -0.008,-0.043 -0.018,-0.087 -0.031,-0.132 -0.03,-0.108 -0.073,-0.222 -0.132,-0.342 -0.46,-0.945 -0.576,-1.985 -2.966,-1.897 L 8.399,-6.842 8.394,-6.855 c -0.143,0.058 -0.257,0.101 -0.318,0.121 -0.29,0.101 -2.998,1.174 -4.228,1.763 -1.23,0.585 -2.137,1.609 -3.187,2.507 -0.022,0.018 -0.044,0.037 -0.064,0.057 -0.97,0.903 -0.625,2.379 -0.625,2.379 L 0,-0.001 0,0 Z"
             style="fill:none;fill-opacity:1;fill-rule:nonzero;stroke:none"
             id="path1206"
             inkscape:connector-curvature="0" />
        </g>
        <g
           id="g1208"
           transform="translate(143.6797,249.8404)"
           style="fill:none">
          <path
             d="m 0,0 c -0.504,0.03 -0.336,0.268 -0.336,0.268 0.069,0.096 0.167,0.375 0.224,0.479 C 0.915,2.174 0.669,4.665 0.65,6.546 0.63,8.567 1.847,9.683 1.847,9.683 L 1.855,9.73 C 2.392,9.627 2.951,9.566 3.501,9.535 L 3.498,9.497 c 0,0 -0.825,-0.853 -0.826,-2.205 C 2.673,5.942 3.057,3.94 3.049,3.475 3.044,3.189 2.835,2.301 2.687,1.614 L 2.517,0.825 2.728,-0.308 c 0,0 0.179,-0.443 -0.563,-0.364 C 1.754,-0.877 1.16,-0.671 0.915,-0.392 0.669,-0.115 0.502,-0.03 0,0"
             style="fill:none;fill-opacity:1;fill-rule:nonzero;stroke:none"
             id="path1210"
             inkscape:connector-curvature="0" />
        </g>
        <g
           id="g1212"
           transform="translate(146.8549,245.3139)"
           style="fill:none">
          <path
             d="m 0,0 c -0.3,0.367 -0.386,1.181 -0.386,1.181 l -0.162,0.018 -0.001,0 c 0.036,0.032 0.066,0.063 0.088,0.092 0.176,0.233 1.207,0.819 1.395,0.808 0.11,-0.008 0.571,0.003 0.965,-0.035 L 1.902,2.092 C 1.748,2.211 1.391,2.555 1.416,2.955 c 0.003,0.051 0.01,0.102 0.021,0.156 0.078,0.371 0.349,0.796 0.677,1.176 0.126,0.146 0.335,0.304 0.56,0.45 0.448,0.292 0.954,0.537 0.954,0.537 l 0.021,0.02 0,0.001 C 4.242,4.669 5.564,3.306 6.178,2.941 L 6.276,2.915 C 6.129,2.348 6.038,1.705 6.061,0.984 6.08,0.415 6.096,-0.193 6.142,-0.75 l 0,-0.001 C 5.369,-1.479 3.984,-1.288 2.673,-1.209 1.479,-1.138 0.496,-0.503 0.101,-0.11 0.061,-0.07 0.027,-0.034 0,0"
             style="fill:none;fill-opacity:1;fill-rule:nonzero;stroke:none"
             id="path1214"
             inkscape:connector-curvature="0" />
        </g>
        <g
           id="g1216"
           transform="translate(142.1681,250.2228)"
           style="fill:none">
          <path
             d="m 0,0 c 0,0 -0.295,0.028 -0.224,0.093 0.072,0.064 0.438,0.657 0.513,0.789 0.031,0.053 0.179,0.457 0.309,0.742 0.186,0.404 0.289,0.889 0.289,0.889 0.271,0.7 0.319,1.011 0.319,1.011 L 1.414,6.516 C 1.458,8.254 2.479,9.511 2.479,9.511 L 2.494,9.56 C 2.774,9.474 3.067,9.404 3.367,9.347 L 3.359,9.301 c 0,0 -1.217,-1.117 -1.198,-3.138 C 2.18,4.283 2.665,2.574 1.885,1.176 L 1.596,0.59 c 0,0 -0.392,-0.972 -0.392,-0.973 C 1.17,-0.4 0.883,-0.171 0.653,-0.243 0.42,-0.315 0.046,-0.172 0,0"
             style="fill:none;fill-opacity:1;fill-rule:nonzero;stroke:none"
             id="path1218"
             inkscape:connector-curvature="0" />
        </g>
        <g
           id="g1220"
           transform="translate(140.9176,251.1045)"
           style="fill:none">
          <path
             d="m 0,0 c -0.556,0.263 0.364,1.106 0.364,1.106 l 0.737,1.036 c 0,0 0.541,0.75 0.729,1.512 0.217,0.272 0.31,2.297 0.31,2.297 0.278,2.271 1.172,2.875 1.172,2.875 0.14,-0.053 0.284,-0.103 0.432,-0.147 l 0,-10e-4 L 3.729,8.63 c 0,0 -1.021,-1.258 -1.065,-2.996 L 2.456,2.642 c 0,0 -0.048,-0.31 -0.319,-1.011 0,0 -0.141,-0.503 -0.327,-0.908 L 1.054,-0.751 c 0,0 -0.345,0.252 -0.569,0.401 C 0.196,-0.419 0,0 0,0"
             style="fill:none;fill-opacity:1;fill-rule:nonzero;stroke:none"
             id="path1222"
             inkscape:connector-curvature="0" />
        </g>
        <g
           id="g1224"
           transform="translate(185.3085,260.5629)"
           style="fill:none">
          <path
             d="m 0,0 c 0.52,-1.3 0.852,-3.104 1.138,-5.572 0.551,-4.748 -0.691,-9.004 -1.077,-10.578 -0.386,-1.573 0.24,-3.809 0.945,-3.986 0,0 -2.704,-0.296 -3.862,-0.251 -0.49,0.017 -0.546,0.011 -1.09,0.036 -1.885,0.082 -3.824,0.186 -3.942,0.274 m -26.124,19.079 c 0,0 -1.994,-0.31 -4.125,-0.186 -0.55,0.031 -1.11,0.092 -1.646,0.195 -0.3,0.056 -0.593,0.127 -0.874,0.212 l 0,0.001 c -0.147,0.044 -0.292,0.094 -0.432,0.148 0,0 -0.895,-0.325 -1.172,-2.598 0,0 -0.114,-2.243 -0.404,-3.138 -0.55,-1.177 -1.754,-2.402 -1.754,-2.402 0,0 -0.327,-0.364 0.072,-0.723 l 0.871,-0.602 m 1.53,-0.635 c -0.034,-0.017 -1.335,0.288 -1.381,0.461 0,0 -0.046,0.101 0.025,0.166 0.072,0.063 0.289,0.304 0.364,0.437 0.031,0.053 0.045,0.078 0.175,0.363 0.186,0.405 0.499,1.097 0.499,1.097 0.271,0.702 0.225,0.826 0.225,0.826 l 0.302,3.833 c 0.043,1.74 1.065,2.718 1.065,2.718 m 20.054,7.051 c 0,0 -0.11,0.183 -0.198,0.335 -0.052,0.091 -0.096,0.169 -0.104,0.191 -0.022,0.057 -0.06,0.147 0.021,0.259 0.08,0.112 0.28,0.025 0.304,0.006 0.023,-0.019 0.137,-0.163 0.297,-0.289 0.159,-0.129 0.135,-0.008 0.272,-0.604 0.029,-0.125 0.036,-0.225 0.026,-0.307 -0.044,-0.308 -0.409,-0.249 -0.802,-0.511 -0.508,-0.338 -1.069,0.026 -1.069,0.026 0,0 -0.812,0.766 -0.864,0.844 -0.051,0.075 -0.138,0.069 -0.21,-0.014 -0.074,-0.082 -0.031,-0.09 -0.346,-0.096 -0.316,-0.004 -0.458,0.18 -0.502,0.272 -0.045,0.089 0.399,0.272 0.399,0.272 0,0 0.487,0.286 0.977,0.325 0.081,0.007 0.155,0.015 0.225,0.021 0.351,0.035 0.576,0.056 0.903,-0.145 l 0.454,-0.27 m 6.358,-17.54 c 0,0 -0.031,-2.531 -0.02,-2.728 0.01,-0.199 0.069,-1.031 -0.169,-1.365 -0.238,-0.337 -0.493,-0.933 -0.464,-1.174 0.029,-0.241 0.029,-0.668 -0.015,-0.792 -0.047,-0.125 -0.298,-0.902 -0.298,-0.902 0,0 -0.102,-0.645 0.494,-0.721 0.595,-0.075 1.414,-0.084 1.731,0.075 0.316,0.161 0.565,0.478 0.476,0.687 -0.091,0.211 -0.325,0.351 -0.479,0.553 -0.155,0.202 -0.349,0.583 -0.284,0.823 0,0 0.097,0.326 0.093,0.467 -0.006,0.139 -0.035,0.705 0.105,0.903 0.139,0.195 1.152,1.745 1.152,1.745 0,0 0.491,0.727 0.655,2.825 m -2.896,-0.331 c 1.14,0.254 2.139,0.385 2.886,0.452 l 0,10e-4 c 0.883,0.079 1.415,0.071 1.415,0.071 m -12.007,-2.151 c -0.079,-1.166 -0.166,-2.01 -0.166,-2.01 -0.179,-1.644 -1.031,-3.778 -1.031,-3.778 0,0 0.889,0.029 1.712,0.303 0.825,0.275 1.349,0.915 2.13,0.465 m -6.782,1.669 c 0,0 2.212,-2.346 2.934,-2.429 m 21.696,-2 c 0,0 -2.377,0.457 -2.473,4.26 m -14.655,23.923 0.393,-1.517 m -8.26,-4.16 0.263,0.033 c 0,0 0.654,-0.099 0.734,-0.104 0.082,-0.005 0.675,-0.115 0.675,-0.115 0.057,-0.164 -0.294,-0.284 -0.294,-0.284 l -0.634,-0.104 0.197,-0.323 c 0.197,-0.319 -0.236,-0.576 -0.236,-0.576 0.125,-0.609 -0.263,-0.793 -0.263,-0.793 -0.597,-0.402 -1.171,-0.053 -1.592,0.187 -0.105,0.059 -0.199,0.113 -0.283,0.146 -0.422,0.166 -0.308,0.559 -0.317,0.951 -0.01,0.39 0.151,0.732 0.263,0.879 0.108,0.148 0.625,0.332 0.625,0.332 l 0.434,-0.115 0.428,-0.114 0.012,-0.003 c 0,0 0.198,-0.309 0.107,-0.369 -0.093,-0.065 -0.431,-0.212 -0.574,-0.135 l -0.144,0.075 M -21.29,-8.29 c 0,0 -0.451,0.12 -0.558,0.304 m 7.263,15.836 c 0,0 0.391,-0.235 0.797,-0.242 m -2.431,0.927 c 0,0 0.391,-0.235 0.796,-0.241 m -9.791,-1.14 0.668,-0.446 m 20.889,-9.639 c -6.23,1.669 -2.162,5.77 -1.523,6.37 m 0.689,-6.818 -0.987,-3.874 m -8.462,3.042 1.093,0.228 m -0.618,-0.166 0.126,-0.139 M -14.322,7.72 -14.364,7.534 m -1.499,0.75 -0.017,-0.121 m -9.048,-1.276 -0.103,-0.154 m 3.463,-14.959 -0.144,-0.122 m 0.294,10.969 0.051,-0.075 M -21.881,2.38 c 0,0 0.459,0.622 0.683,0.443 m 0.968,-1.554 c 0,0 0.422,0.092 0.657,0.255 m 3.937,5.694 c 0,0 -0.021,-0.071 0.248,-0.087 m -0.515,-0.272 c 0,0 0.172,-0.144 0.417,-0.159 m -3.441,-19.181 c 0,0 -0.029,-0.24 -0.07,-0.485 -0.036,-0.217 -0.08,-0.438 -0.124,-0.505 -0.088,-0.14 -0.246,-0.637 -0.187,-0.716 0,0 0.155,-0.485 0.405,-0.136 l 0.251,0.349 0.266,0.429 m -0.657,1.85 c -0.017,-0.148 -0.145,-0.691 0.184,-0.741 0,0 0.308,-0.006 0.326,0.3 0.019,0.306 0.162,0.453 0.201,0.58 m 0.88,1.88 c 0,0 -0.429,0.366 -0.986,-0.146 -0.387,-0.355 -0.468,-0.426 -0.481,-0.436 l -0.001,0 c 0,-0.001 -10e-4,-0.001 -10e-4,-0.001 l 0,0 c 0,-10e-4 0,-10e-4 0,0 l 10e-4,0.001 0.002,0.002 0,10e-4 m 0,-10e-4 c 0,-10e-4 -0.001,-10e-4 -0.001,-0.002 m -0.002,-0.001 c -0.38,-0.517 -0.354,-0.47 -0.407,-0.606 -0.042,-0.117 -0.221,-0.873 -0.218,-0.983 0.003,-0.108 -0.024,-0.34 -0.081,-0.382 -0.056,-0.042 -0.378,-0.261 -0.413,-0.214 -0.034,0.05 -0.309,0.448 -0.434,0.474 -0.126,0.025 -0.325,0.046 -0.244,-0.132 0.081,-0.178 -0.496,-0.087 -0.098,-0.429 l 0.397,-0.344 c 0,0 0.362,-0.311 0.587,-0.359 0.224,-0.052 0.599,-0.022 0.78,0.272 m 1.248,5.589 c 0,0 -2.208,-0.891 -1.307,-2.937 m 0.271,2.238 c 0,0 -0.109,1.36 -0.077,1.898 0.018,0.294 0.333,1.77 0.614,3.043 m 5.364,-2.141 0.265,0.16 m 5.831,-13.695 c 0,0 1.135,-1.281 2.052,-1.494 m -4.11,20.393 c 0.006,0.098 0.844,2.71 2.466,3.38 0.596,0.343 1.289,0.053 1.289,0.053 0.343,-0.147 1.326,0.23 2.443,-0.628 l 0.897,0.28 c 1.538,0.245 2.298,-1.083 2.298,-1.905 0,-0.822 -1.121,-1.868 -1.121,-1.868 l -1.146,-0.935 c -0.316,-0.562 -1.504,-1.173 -1.866,-1.421 -0.547,-0.377 -1.129,-0.441 -1.699,-0.322 -1.789,0.372 -3.448,2.549 -3.448,2.549 m -4.509,2.303 c 0,0 0.428,0.554 1.086,0.844 0.158,0.069 3.286,1.71 6.111,1.199 m 2.969,-14.085 c 0,0 -1.03,0.132 -1.786,-0.384 l 0,-10e-4 c -0.156,-0.106 -0.302,-0.241 -0.424,-0.412 -0.465,-0.652 -2.374,-2.235 -3.637,-3.253 -0.421,-0.339 -0.771,-0.615 -0.971,-0.773 -0.108,-0.085 -0.479,-0.643 -0.479,-0.643 0,0 0.438,7.076 5.079,12.614 m -3.583,-11.263 c 0,0 -0.25,-2.469 -0.556,-3.199 -0.306,-0.73 -0.522,-1.301 -0.519,-1.588 0.004,-0.281 -0.202,-1.036 -0.295,-1.232 -0.06,-0.127 -0.175,-0.342 -0.239,-0.581 -0.036,-0.133 -0.057,-0.274 -0.043,-0.412 0.037,-0.387 0.059,-0.711 0.339,-0.747 0.281,-0.038 0.71,0.058 0.71,0.058 0,0 0.396,-0.145 0.597,-0.157 0.201,-0.012 0.441,-0.048 0.588,0.044 0.147,0.093 0.436,0.195 0.562,0.291 0.127,0.093 0.491,0.413 0.484,0.656 -0.004,0.245 -0.601,1.087 -0.601,1.087 0,0 -0.03,0.101 -0.066,0.259 -0.086,0.382 -0.206,1.094 -0.011,1.484 0.276,0.549 3.293,4.751 3.089,7.733 m -4.703,7.149 c -0.034,-0.24 -0.398,-1.59 -0.435,-1.872 -0.037,-0.28 -0.073,-0.563 0.066,-0.912 0.141,-0.354 0.331,-1.233 0.308,-1.616 -0.023,-0.381 -0.204,-1.402 -0.341,-1.978 -0.025,-0.108 -0.046,-0.196 -0.063,-0.268 l -0.072,-0.311 -0.508,-1.09 c 0,0 -0.841,-1.628 -0.985,-2.004 -0.144,-0.376 -0.826,-1.648 -0.125,-3.446 l 0.278,-1.024 c 0.475,-1.483 0.644,-1.613 1.182,-1.703 m -6.097,18.038 c 0,0 -0.221,0.161 -0.158,0.388 0.063,0.226 -0.175,0.652 0.011,0.754 0.125,0.07 0.142,0.402 0.286,0.646 0.073,0.122 0.178,0.222 0.344,0.256 0.499,0.099 0.298,0.573 0.664,0.682 0.37,0.11 0.697,0.384 0.829,0.377 0.131,-0.008 0.604,0.191 0.738,0.22 0.06,0.01 0.22,0.035 0.387,0.053 0.2,0.021 0.409,0.032 0.469,-0.006 0.064,-0.044 0.309,-0.156 0.537,-0.245 0.167,-0.066 0.325,-0.119 0.394,-0.123 0.164,-0.01 0.79,-0.263 0.904,-0.27 0.117,-0.007 0.491,-0.029 0.45,-0.176 -0.043,-0.144 -0.131,-0.27 -0.053,-0.307 0.082,-0.038 0.32,-0.168 0.299,-0.248 -0.021,-0.082 -0.147,-0.256 -0.119,-0.353 0.026,-0.103 0.269,-0.444 0.311,-0.564 0.043,-0.116 0.064,-0.297 -0.022,-0.374 -0.088,-0.078 -0.173,-0.14 -0.112,-0.206 0.061,-0.072 0.019,-0.233 -0.05,-0.295 -0.069,-0.061 -0.163,-0.237 -0.232,-0.317 -0.071,-0.076 -0.271,-0.409 -0.375,-0.484 -0.103,-0.077 -0.397,-0.043 -0.436,-0.171 -0.042,-0.131 -0.445,-0.253 -0.543,-0.247 -0.097,0.006 -0.61,-0.325 -0.697,-0.123 -0.086,0.201 -0.082,0.548 -0.041,0.677 0.041,0.127 0.195,0.232 0.234,0.331 0.038,0.096 0.031,0.242 -0.015,0.297 -0.046,0.05 -0.298,0.264 -0.088,0.478 0.211,0.221 0.619,0.983 0.697,1.194 0.078,0.209 0.009,0.425 -0.037,0.478 -0.046,0.051 -0.57,0.345 -0.652,0.382 -0.08,0.038 -0.744,0.179 -0.893,0.171 -0.147,-0.007 -0.573,0.034 -0.743,-0.072 -0.17,-0.103 -0.59,-0.26 -0.676,-0.32 -0.086,-0.062 -0.416,-0.37 -0.416,-0.37 l -0.468,-0.4 c 0,0 -0.562,-0.539 -0.616,-1.718 -0.013,-0.26 0,-0.552 0.049,-0.875 0,0 0.069,-0.526 0.395,-0.922 0.091,-0.112 0.777,-0.643 0.777,-0.643 0,0 0.276,-0.051 0.341,-0.056 0.067,-0.003 0.258,-0.08 0.346,-0.265 0.087,-0.186 0.291,-0.924 0.708,-0.799 l 0.295,0.277 c 0,0 0.434,-0.172 0.515,-0.21 0.071,-0.036 0.758,-0.377 1.573,0.792 0.084,0.121 0.17,0.257 0.257,0.412 0,0 0.28,0.719 0.586,1.296 0.07,0.032 0.331,0.196 0.414,0.226 0.89,0.327 1.221,1.548 1.221,1.548 0,0 0.007,0.171 -0.006,0.418 m -10.509,-23.514 -0.001,-1.04 m -4.013,2.359 0,-1.054 4.07,-1.372 7.443,2.188 0,1.052 m -11.511,-0.814 4.012,-1.319 7.499,2.133 -4.275,0.879 -2.729,-0.639 -0.271,-0.063 -0.001,0 -4.235,-0.991 -0.002,0 m 7.423,19.162 c 0,0 -0.132,-0.396 -0.273,-0.497 -0.14,-0.099 -0.812,-0.974 -0.685,-1.547 0.128,-0.574 0.419,-1.561 0.419,-1.561 l 0.276,0.034 2.572,0.308 c 0,0 0.174,0.043 0.391,0.125 0.248,0.093 0.551,0.237 0.72,0.428 0.316,0.357 1.214,1.839 1.214,1.839 m -7.556,-15.412 -0.263,-1.888 m -0.001,0 -0.253,-1.342 0.525,1.405 0.973,2.466 1.195,-3.247 -0.688,4.574 -0.046,0.486 c 0,0 -0.461,-0.036 -0.7,-0.409 -0.239,-0.37 -0.46,-1.17 -0.532,-1.491 -0.062,-0.279 -0.215,-0.537 -0.224,-0.553 l 0,-0.001 c -0.289,-0.008 -0.263,0.399 -0.263,0.399 l -0.105,1.741 c -0.095,0.073 -0.165,0.155 -0.215,0.244 -0.181,0.318 -0.114,0.719 -0.109,1.033 0.005,0.4 0.357,0.856 0.62,1.431 0.12,0.262 0.341,0.96 0.546,1.644 0.246,0.816 0.469,1.611 0.469,1.611 0.12,0.992 0.29,1.719 0.471,2.254 0.386,1.143 0.821,1.411 0.916,1.496 0.141,0.126 0.352,0.781 0.352,0.781 m -1.121,-10.661 c 0.219,0.294 0.462,0.79 0.308,1.446 -0.258,1.092 -0.217,1.331 -0.117,1.65 0.065,0.202 1.428,1.826 2.358,3.525 0.099,0.18 0.192,0.361 0.279,0.541 0.378,0.785 0.623,1.556 0.566,2.179 l 0.825,1.764 0.008,0.017 m -3.533,5.834 -1.724,0.827 m 4.7,5.17 c 0,0 -0.302,-1.222 1.378,-2.414 m 3.743,1.212 c 0,0 -0.229,0.431 -0.887,0.901 -0.319,0.227 -0.697,0.454 -1.117,0.624 m -2.18,3.187 c 0,0 1.781,-0.631 2.907,-2.501 0,0 0.416,-0.725 0.419,-1.091 10e-4,-0.121 0.002,-0.168 10e-4,-0.176 l 0,-0.001 m 0,0.001 C -9.347,4.637 -9.35,4.749 -9.35,4.749 m -7.48,2.791 c 0,0 0.322,-1.136 0.919,-1.293 0,0 0.927,-0.029 1.689,0.546 m 0.233,-2.055 c 0,0 -0.138,-0.633 -0.231,-0.598 -0.092,0.032 -0.353,0.471 -0.353,0.471 l 0.279,0.973 0.122,1.204 0.005,0.056 0.942,1.533 c 0.019,0.105 -0.095,0.663 -0.21,0.766 -0.116,0.1 -0.444,0.47 -0.462,0.606 -0.019,0.136 -0.127,0.586 -0.127,0.586 0,0 -0.694,-0.563 -0.846,-0.65 -0.155,-0.086 -0.659,0.013 -0.794,0.021 -0.134,0.008 -0.449,-0.08 -0.525,-0.237 -0.077,-0.156 -0.35,-0.64 -0.423,-0.744 -0.073,-0.103 -0.157,-0.608 -0.158,-0.852 -0.001,-0.124 -0.058,-0.227 -0.121,-0.323 -0.06,-0.088 -0.125,-0.17 -0.156,-0.253 -0.064,-0.17 0.02,-0.336 0.057,-0.609 0.037,-0.271 -0.017,-0.724 -0.051,-0.859 -0.035,-0.132 -0.265,-0.133 -0.317,-0.13 -0.054,0.004 -0.348,-0.167 -0.348,-0.167 0,0 0.063,0.375 0.084,0.469 0.019,0.092 -0.232,0.631 -0.288,0.81 -0.056,0.179 -0.235,1.494 -0.232,1.779 0.004,0.281 0.308,1.097 0.332,1.245 0.023,0.147 0.234,0.767 0.384,1.027 0.051,0.09 0.152,0.217 0.27,0.351 l 0,0 c 0.223,0.256 0.502,0.534 0.596,0.609 0.14,0.111 1.042,0.327 1.042,0.327 0,0 1.072,0.111 1.655,-0.489 0,0 0.658,-0.026 0.847,-0.44 0.191,-0.42 0.554,-1.101 0.516,-1.297 -0.039,-0.202 -0.159,-0.409 -0.139,-0.519 0.02,-0.111 -0.044,-0.739 -0.108,-0.91 -0.008,-0.022 -0.016,-0.043 -0.024,-0.064 -0.051,-0.141 -0.086,-0.259 -0.07,-0.387 0.018,-0.15 0.163,-0.644 0.076,-0.746 -0.087,-0.102 -0.24,-0.201 -0.246,-0.296 -0.005,-0.092 -0.007,-0.537 -0.147,-0.65 C -13.3,6.238 -13.364,6.068 -13.369,5.988 -13.374,5.905 -13.246,5.333 -13.436,5.089 -13.502,5.004 -13.564,4.94 -13.62,4.897 l 0,-0.001 c -0.053,-0.005 -0.142,0.012 -0.221,-0.052 l -0.148,-0.106 z m -4.954,-2.705 c 0,0 0.474,1.094 0.518,1.16 0,0 0.829,1.242 -10e-4,3.326 -0.131,0.324 -0.627,-0.28 -0.651,-0.31 -10e-4,-10e-4 -10e-4,-0.002 -10e-4,-0.002 m -2.165,2.313 c 0,0 -0.413,0.736 0.268,1.547 0.682,0.805 0.903,0.914 1.188,0.95 0.285,0.037 0.787,0.102 0.787,0.102 0,0 0.939,0.68 1.844,0.094 m 0,0 c 0.002,-10e-4 0.004,-0.003 0.007,-0.004 M -22.196,7 c 0,0 0.006,0.781 0.221,0.971 0.154,0.137 0.448,0.364 0.748,0.42 0.114,0.021 0.229,0.017 0.338,-0.027 0.396,-0.16 1.508,-0.671 1.794,-1.321 0.177,-0.405 0.127,-0.667 0.014,-0.832 -0.068,-0.099 -0.159,-0.164 -0.238,-0.203 -0.21,-0.11 -0.67,-0.193 -0.67,-0.193 m -4.96,-22.923 c 0,0 -0.213,3.024 -0.127,3.459 m 4.327,11.534 0.054,-2.489 m -4.415,3.364 c 0,0 -2.192,-1.257 -1.757,-4.776 m 7.337,8.186 c 0.005,-0.09 0.136,-0.892 0.133,-0.955 -0.004,-0.057 0.236,-0.661 0.076,-0.795 -0.181,-0.149 -0.448,-0.269 -0.635,-0.363 -1.411,-0.004 -2.183,0.296 -2.183,0.296 m 2.235,-0.319 c -0.03,-0.683 0.302,-0.834 0.355,-0.929 0.053,-0.093 0.126,-0.231 0.126,-0.231 0,0 0.224,-0.034 0.45,0.056 0.226,0.091 0.456,0.322 0.456,0.322 0.359,0.269 0.071,0.53 0.159,0.808 0.088,0.275 -0.17,0.535 -0.17,0.535 0,0 0.1,-0.006 0.106,0.094 0.006,0.102 -0.274,0.321 -0.313,0.342 -0.039,0.023 0.031,0.159 -0.043,0.297 -0.073,0.133 -0.142,0.492 -0.142,0.492 -0.004,0.044 -0.067,0.307 -0.075,0.342 -0.086,0.336 -0.332,0.416 -0.332,0.416 -0.009,0.194 -0.244,0.344 -0.244,0.344 0.056,0.422 -0.361,0.37 -0.411,0.556 -0.049,0.183 -0.426,0.365 -0.426,0.365 -0.157,0.251 -0.607,0.317 -0.607,0.317 -0.148,0.038 -0.817,-0.233 -0.817,-0.233 0,0 -0.254,0.077 -0.565,-0.055 0,0 -0.648,0.149 -0.971,-0.518 0,0 -0.338,-0.226 -0.485,-0.516 0,0 -0.494,-1.459 -0.562,-1.967 -0.074,-0.545 -0.036,-0.428 -0.087,-0.571 -0.09,-0.248 -1.129,-1.163 -0.608,-1.54 0.523,-0.374 0.672,-0.433 0.767,-0.68 0.097,-0.248 1.593,-0.433 1.915,-0.288 0.323,0.145 0.504,1.204 0.504,1.204 0.02,0.24 0.034,0.461 -0.05,0.788 -0.034,0.129 -0.076,0.256 -0.123,0.364 -0.17,0.383 -0.235,0.801 -0.222,1.011 0.012,0.212 -0.12,0.542 -0.26,0.724 -0.141,0.181 -0.351,0.384 -0.298,0.754 0.052,0.373 0.357,0.899 0.522,0.961 0.165,0.059 0.575,0.338 1.372,0.149 0,0 0.306,-0.27 0.364,-0.317 0.058,-0.043 0.296,-0.194 0.46,-0.334 0.162,-0.144 0.222,-0.334 0.228,-0.385 m -9.415,-16.169 c 0,0 0.402,-0.515 1.25,-0.471 l 0,0 c 1.036,0.158 1.802,0.755 2.112,1.247 l 0.001,0 c 0.425,0.799 0.739,1.891 -0.503,3.457 m 5.083,0.059 c 0,0 -0.341,0.102 -0.334,0.21 m -0.22,-0.501 -0.179,0.144 m -2.016,0.416 c 0,0 0.182,-0.382 0.385,-0.619 0.203,-0.237 0.899,-0.531 1.342,-0.397 0.187,0.057 0.239,0.201 0.347,0.222 0.109,0.02 0.253,0.172 0.39,0.191 0.135,0.019 0.288,0.334 0.288,0.334 0,0 0.452,-0.108 0.468,0.162 0.016,0.268 0.029,0.938 0.029,0.938 0,0 0.363,0.22 0.448,0.727 m -5.821,0.99 c 0,0 -0.208,0.881 0.152,1.047 0,0 0.019,0.017 0.05,0.045 0.066,0.06 0.186,0.17 0.264,0.258 0.116,0.128 0.378,0.439 0.54,0.453 0.162,0.021 0.333,0.169 0.448,0.296 0.116,0.13 0.467,0.593 0.999,0.506 0.534,-0.085 1.716,-0.13 1.871,-0.246 0.155,-0.117 0.879,-0.618 0.986,-0.625 0.04,-0.002 0.143,-10e-4 0.264,-0.022 0.208,-0.036 0.47,-0.137 0.57,-0.431 0,0 0.311,-0.234 0.044,-0.623 0,0 0.574,-0.329 0.664,-0.606 0.091,-0.274 0.167,-0.817 -0.328,-0.976 0,0 -0.597,-0.072 -0.703,-0.066 0,0 -0.04,0.245 -0.173,0.282 -0.132,0.033 -0.266,0.041 -0.407,-0.058 -0.14,-0.099 -0.616,-0.393 -0.753,-0.441 -0.138,-0.042 -0.383,-0.083 -0.413,-0.163 -0.033,-0.079 -0.13,-0.262 -0.626,-0.527 -0.004,-0.002 -1.836,-0.417 -1.845,-0.42 m -1.271,-4.042 c 1.366,0.18 1.629,1.874 1.665,2.411 0.004,0.074 -0.123,0.532 -0.123,0.532 0,0 -0.113,0.518 -0.23,0.971 -0.069,0.271 -1.461,2.223 -1.461,2.223 m -1.999,-7.422 c 0,0 0.568,-1.162 0.626,-1.572 0.034,-0.246 0.35,-1.269 0.609,-2.075 0.166,-0.519 0.309,-0.95 0.336,-1.025 0.057,-0.158 0.404,-0.568 0.276,-1.228 -0.008,-0.043 -0.019,-0.087 -0.031,-0.132 -0.031,-0.108 -0.073,-0.223 -0.133,-0.343 -0.459,-0.945 -0.575,-1.986 -2.967,-1.897 l -0.583,0.053 m 1.583,16.64 c 0,0 1.447,-0.375 2.073,-0.811 0.011,-0.008 0.02,-0.014 0.03,-0.022 0.075,-0.054 0.136,-0.11 0.18,-0.166 m -11.716,-11.254 c 0,0 -0.228,-0.204 -0.244,-0.47 -0.016,-0.271 -0.02,-0.781 -0.236,-1.254 -0.217,-0.47 -0.658,-1.55 -0.619,-1.794 0.038,-0.246 0.622,-1.254 0.628,-1.305 0.007,-0.053 0.169,-0.216 0.198,-0.225 0.031,-0.011 0.28,-0.047 0.332,-0.039 0.05,0.006 0.23,-0.025 0.292,-0.008 0.061,0.014 0.226,0.058 0.231,0.138 0.005,0.08 -0.009,0.192 0.052,0.217 0.063,0.027 0.367,0.393 0.259,0.431 -0.108,0.035 -0.298,0.099 -0.394,0.134 -0.1,0.037 -0.232,0.033 -0.285,0.158 -0.054,0.125 -0.11,0.2 -0.062,0.326 0.048,0.131 0.197,0.25 0.292,0.317 0.096,0.065 1.234,0.868 1.414,0.836 0.18,-0.034 0.618,-0.13 0.8,-0.301 0.181,-0.173 1.738,-1.479 2.073,-1.631 0.335,-0.151 1.688,-0.971 2.363,-1.039 0.671,-0.072 1.857,-0.325 2.365,-0.466 0.506,-0.14 1.604,-0.349 2.082,0.2 0.476,0.546 0.692,0.583 0.721,0.926 0.03,0.341 0.2,1.321 -0.083,1.803 -0.285,0.481 -0.557,0.82 -0.557,0.82 m -12.204,4.658 c 0,0 -0.346,-1.477 0.625,-2.38 0.02,-0.02 0.042,-0.04 0.064,-0.058 1.051,-0.898 1.959,-1.923 3.189,-2.508 1.231,-0.59 3.94,-1.664 4.231,-1.765 0.06,-0.02 0.174,-0.063 0.318,-0.121 0.542,-0.218 1.511,-0.645 1.674,-0.803 m -10.56,8.954 c 0,0 0.086,-0.814 0.387,-1.181 0.027,-0.034 0.061,-0.07 0.1,-0.11 0.396,-0.393 1.38,-1.028 2.574,-1.1 1.312,-0.078 2.698,-0.269 3.471,0.458 l 0,0.001 c 0.002,0.001 0.004,0.004 0.005,0.005 m -2.797,6.363 c 0,0 0.114,-0.124 0.298,-0.319 0.593,-0.626 1.916,-1.99 2.53,-2.355 m -0.036,-3.695 c 0.073,-0.876 0.218,-1.629 0.562,-1.912 0,0 0.415,-0.35 0.462,-0.391 0.048,-0.045 0.418,-0.279 0.453,-0.362 0.036,-0.081 0.14,-0.36 0.087,-0.417 -0.055,-0.058 -0.274,-0.176 -0.297,-0.217 -0.022,-0.037 -0.096,-0.256 0.051,-0.336 0,0 0.067,-0.053 0.144,0.044 0.077,0.094 0.19,0.131 0.26,0.145 0.073,0.016 0.445,0.174 0.455,0.337 0.009,0.153 0.017,0.279 0.018,0.29 m 0,0.001 0,-0.001 0.618,-1.289 c 0,0 0.188,-0.091 0.242,-0.043 0.052,0.047 0.127,0.102 0.092,0.194 -0.035,0.094 -0.144,0.474 -0.144,0.474 l -0.159,0.546 -0.132,0.33 -0.124,0.373 m -0.001,0.002 0.001,-0.002 0.613,-0.817 0.322,-0.542 c 0,0 0.16,-0.184 0.263,-0.137 0.104,0.042 0.227,0.096 0.142,0.314 -0.09,0.216 -0.275,0.651 -0.275,0.651 0,0 -0.271,0.532 -0.523,0.729 l 0.564,-0.216 0.768,-0.49 c 0,0 0.122,0.014 0.166,0.071 0.043,0.058 -0.011,0.164 -0.067,0.227 -0.057,0.063 -0.631,0.773 -0.631,0.773 0,0 -0.251,0.19 -0.38,0.245 0,0 -0.124,0.099 -0.151,0.174 -0.024,0.069 -0.342,0.362 -0.399,0.416 -0.057,0.053 -0.554,0.367 -0.723,0.406 -0.168,0.041 -0.62,0.097 -0.584,0.359 0.037,0.259 0.577,1.539 0.577,1.539 l 0.391,0.797 c 0,0 0.067,0.127 0.158,0.311 0.184,0.378 0.469,0.994 0.484,1.247 0,0 0.95,0.129 0.978,0.586 0.027,0.456 0.364,1.136 -2.376,2.138 0,0 -0.814,-0.545 -1.215,-1.382 -0.201,-0.423 -0.407,-0.921 -0.556,-1.496 -0.147,-0.568 -0.238,-1.21 -0.215,-1.932 0.018,-0.569 0.034,-1.178 0.081,-1.736 m -4.773,3.874 c 0,0 -0.88,0.591 -1.015,0.599 -0.064,0.004 -0.297,0.043 -0.554,0.077 -0.274,0.039 -0.576,0.072 -0.73,0.053 -0.299,-0.035 -1.247,-0.569 -1.307,-1.132 -0.061,-0.563 -0.501,-2.072 0.9,-2.046 0,0 0.534,0.297 0.784,0.526 0.036,0.032 0.066,0.063 0.088,0.092 0.177,0.233 1.208,0.82 1.396,0.808 0.111,-0.007 0.572,0.004 0.966,-0.035 0.272,-0.026 0.512,-0.075 0.583,-0.168 0.176,-0.225 0.292,-0.986 0.394,-1.073 0.103,-0.086 0.924,-0.755 0.924,-0.755 m -0.172,5.209 c 0,0 -0.506,-0.245 -0.954,-0.538 -0.225,-0.146 -0.435,-0.304 -0.56,-0.45 -0.328,-0.38 -0.599,-0.805 -0.678,-1.177 -0.011,-0.053 -0.018,-0.105 -0.021,-0.156 -0.024,-0.4 0.332,-0.744 0.487,-0.864 m 4.543,6.141 -1.273,-0.544 c 0,0 -1.312,-0.326 -1.637,-0.363 -0.325,-0.032 -1.58,-0.308 -1.544,-1.039 0.038,-0.726 -0.086,-0.987 0.172,-1.191 0.256,-0.206 0.492,-0.327 0.492,-0.327 m 7.92,13.679 c 0,0 0.798,-0.567 0.873,-0.846 m -3.679,-0.224 c 0,0 -0.144,-0.533 0.012,-0.782 0,0 0.411,-1.151 1.651,-1.244 0.118,-0.01 1.258,-0.053 1.258,-0.053 m 2.204,5.648 0.261,-0.284 m -5.001,3.266 c -0.116,0.306 0.201,0.591 0.34,0.672 0.021,0.013 0.228,0.058 0.228,0.058 -0.003,0.021 -0.005,0.033 -0.007,0.051 -0.029,0.437 1.314,0.652 1.314,0.652 0.039,0.859 2.089,0.494 2.089,0.494 0.967,0.158 1.946,-0.574 1.946,-0.574 0.762,0.145 1.165,-0.772 1.165,-0.772 0.728,-0.216 0.411,-1.261 0.391,-1.356 -0.018,-0.091 -0.016,-0.266 -0.397,-0.325 -0.123,-0.018 -0.266,0.022 -0.41,0.087 -0.302,0.136 -0.345,0.071 -0.782,0.348 l -0.548,0.411 c 0,0 0.041,-0.434 -0.144,-0.613 -0.186,-0.177 -0.253,-0.173 -0.375,-0.166 -0.12,0.007 -0.391,-0.258 -0.559,-0.358 -0.168,-0.097 -0.44,-0.386 -0.86,-0.404 0,0 -0.79,-0.17 -1.012,-0.046 -0.222,0.12 -0.726,-0.107 -0.795,0.086 -0.044,0.123 -0.179,0.307 -0.414,0.458 m -0.281,-2.386 1.956,0.507 0.11,-0.06 0.77,-0.418 c 0,0 0.508,-0.272 0.692,-0.243 0.183,0.029 0.189,0.131 0.194,0.211 0.005,0.079 0.134,0.215 0.196,0.23 0.061,0.016 0.194,0.19 0.194,0.19 0,0 0.241,0.007 0.326,0.061 0.08,0.052 0.202,0.196 0.214,0.21 l 0,0.001 m 0,-0.001 c 0,0 0.302,-0.34 0.391,0.097 0.086,0.439 0.485,1.366 0.557,1.564 0.074,0.196 0.151,0.278 0.151,0.278 m -3.7,-2.206 c 0,0 0.091,-0.724 -0.311,-1.208 -0.065,-0.08 -0.144,-0.152 -0.238,-0.214 l -0.673,-0.446 m -3.186,-1.929 1.025,0.515 0.807,0.405 c 0,0 1.202,0.418 1.861,0.711 l 0,0 c 0.238,0.106 0.405,0.195 0.419,0.243 0.049,0.179 0.041,0.684 0.041,0.684 m -6.616,-0.167 c -0.661,-0.245 -1.347,0.444 -1.985,1.248 -0.638,0.807 -0.152,1.506 0.755,2.501 0.807,0.884 3.26,1.133 3.803,1.175 m -2.906,-7.774 -1.188,0.395 c -0.198,0.053 -1.341,0.524 -1.584,0.539 -0.24,0.014 -0.831,0.249 -1.104,0.426 -0.272,0.182 -0.828,1.021 -0.816,1.224 0.01,0.165 0.092,1.08 0.209,1.757 0.026,0.151 0.054,0.292 0.084,0.408 0.158,0.635 0.697,0.846 1.073,1.066 0.377,0.221 0.789,1.043 1.208,1.302 0.42,0.258 1.523,0.472 2.383,0.665 0.859,0.19 2.506,0.011 2.506,0.011 0,0 0.049,0.002 0.136,0 0.245,-0.007 0.788,-0.054 1.331,-0.326 0.147,-0.073 0.294,-0.162 0.435,-0.271 0.304,-0.236 0.523,-0.514 0.667,-0.809 0.258,-0.528 0.277,-1.114 0.116,-1.624 -0.1,-0.321 -0.26,-0.62 -0.434,-0.87 -0.253,-0.367 -0.537,-0.631 -0.711,-0.718 -0.291,-0.143 -0.578,-0.208 -0.724,-0.644 -0.147,-0.434 -0.369,-1.43 -0.837,-1.848 0,0 -0.075,-0.02 -0.027,-0.221 0.015,-0.059 0.039,-0.133 0.08,-0.227 0.176,-0.413 0.755,-1.538 0.745,-2.387 -0.011,-0.849 0.142,-1.664 0.345,-2.323 0.204,-0.659 0.6,-1.45 0.761,-1.46 0.161,-0.01 0.478,-0.108 0.593,-0.239 0.112,-0.127 0.546,-0.314 0.664,-0.362 0.073,-0.029 0.244,-0.107 0.278,-0.195 0.022,-0.059 -0.014,-0.12 -0.177,-0.175 -0.414,-0.137 -0.771,-0.034 -0.771,-0.034 0,0 -0.215,0.123 -0.287,0.118 -0.07,-0.005 -0.167,-0.101 -0.229,-0.136 -0.058,-0.035 -0.299,-0.101 -0.39,-0.219 0,0 0,0 0,-0.001 -0.008,-0.01 -0.015,-0.019 -0.02,-0.03 m 0.023,0.038 c 0,0 -0.001,-0.003 -0.003,-0.007 m 0,-0.001 c -0.019,-0.049 -0.12,-0.316 -0.144,-0.407 -0.026,-0.099 -0.086,-0.438 -0.095,-0.578 -0.008,-0.142 0.002,-0.326 -0.103,-0.379 0,0 -0.254,-0.186 -0.395,-0.199 -0.143,-0.01 -0.386,-0.036 -0.521,0.072 -0.135,0.11 -0.285,0.301 -0.42,0.408 -0.028,0.024 -0.059,0.055 -0.088,0.094 -0.113,0.148 -0.217,0.404 -0.164,0.752 0.066,0.441 0.33,0.786 0.336,0.889 0.006,0.099 -0.483,1.382 -0.483,1.382 0,0 -0.748,1.012 -0.873,1.264 -0.096,0.185 -0.52,0.65 -0.805,1.731 -0.097,0.37 -0.178,0.812 -0.223,1.339 0,0 -0.105,0.307 -0.081,0.873 0.005,0.122 0.017,0.256 0.036,0.402 0.109,0.823 0.074,1.895 0.086,2.097 0.003,0.049 0.012,0.147 0.028,0.276 0.05,0.4 0.163,1.101 0.344,1.58 0.241,0.633 1.161,2.172 1.161,2.172 m -1.725,-6.524 c 0,0 -0.06,-0.043 -0.165,-0.12 -0.269,-0.194 -0.832,-0.594 -1.436,-0.993 -0.841,-0.556 -1.563,0.214 -1.988,0.523 -0.427,0.306 -1.332,0 -2.148,-0.114 -0.476,-0.065 -0.889,0.223 -1.188,0.508 -0.214,0.204 -0.37,0.405 -0.45,0.478 -0.192,0.172 -0.346,0.95 -0.134,1.14 0.213,0.19 0.823,0.92 0.823,0.92 0.952,1.72 1.934,1.944 1.934,1.944 m -2.166,-4.475 c 0,0 -0.003,-0.002 -0.007,-0.007 -0.068,-0.056 -0.549,-0.513 0.201,-1.655 m 2.95,-0.594 c 0,0 -0.826,-0.853 -0.827,-2.207 10e-4,-1.351 0.385,-3.353 0.377,-3.819 -0.004,-0.286 -0.121,-0.988 -0.269,-1.676 -0.093,-0.427 -0.321,-1.379 0.089,-2.405 m -1.022,10.293 c 0,0 -1.218,-0.837 -1.198,-2.86 0.019,-1.881 0.297,-4.467 -0.484,-5.866 -0.057,-0.104 -0.121,-0.204 -0.19,-0.301 0,0 -0.6,-0.707 -0.096,-0.737 0.502,-0.03 0.8,0.009 1.046,-0.268 0.103,-0.118 0.22,-0.232 0.338,-0.293 0,0 0.511,-0.117 1.07,-0.033"
             style="fill:none;stroke:#ffffff;stroke-width:0.26300001;stroke-linecap:round;stroke-linejoin:round;stroke-miterlimit:4;stroke-dasharray:none;stroke-opacity:1"
             id="path1226"
             inkscape:connector-curvature="0" />
        </g>
        <g
           id="g1228"
           transform="translate(175.2585,245.1802)"
           style="fill:none">
          <path
             d="M 0,0 C 0,0 -1.233,-0.985 0.604,-1.534"
             style="fill:none;stroke:#ffffff;stroke-width:0.23800001;stroke-linecap:round;stroke-linejoin:round;stroke-miterlimit:4;stroke-dasharray:none;stroke-opacity:1"
             id="path1230"
             inkscape:connector-curvature="0" />
        </g>
        <g
           id="g1232"
           transform="translate(185.1492,256.5309)"
           style="fill:none">
          <path
             d="m 0,0 c 0,0 0.327,-1.696 0,-3.561 -0.327,-1.865 0.368,-7.42 0.22,-8.523"
             style="fill:none;stroke:#ffffff;stroke-width:0.26300001;stroke-linecap:round;stroke-linejoin:round;stroke-miterlimit:4;stroke-dasharray:none;stroke-opacity:1"
             id="path1234"
             inkscape:connector-curvature="0" />
        </g>
      </g>
    </g>
    <g
       id="g1236"
       transform="matrix(1.25,0,0,-1.25,397.34972,592.31932)"
       style="fill:#008080">
      <path
         d="M 0,0 1.054,1.054"
         style="fill:#008080;stroke:#ffffff;stroke-width:0.26300001;stroke-linecap:round;stroke-linejoin:round;stroke-miterlimit:4;stroke-dasharray:none;stroke-opacity:1"
         id="path1238"
         inkscape:connector-curvature="0" />
    </g>
    <path
       inkscape:connector-curvature="0"
       id="path1250"
       style="fill:none;stroke:#ffffff;stroke-width:0.32875001;stroke-linecap:round;stroke-linejoin:round;stroke-miterlimit:4;stroke-dasharray:none;stroke-opacity:1"
       d="m 391.74522,601.34682 c 0,0 -0.0612,1.03375 0.1125,2.51625 m 3.72375,7.43125 c 1.775,2.00375 3.73,4.03 3.73,4.03 m -9.6675,-17.32125 2.99125,-0.15125 c 0,0 0.65125,-0.0788 1.07125,-0.34125 m -4.51125,-0.76375 c 0,0 -0.1775,1.095 -0.435,1.7725 m -11.235,-7.505 c 0.49,-0.245 0.565,-0.55875 0.565,-0.55875 0,0 -0.715,-0.51 -1.13625,-0.685 -0.42,-0.175 0.004,-0.50875 0.004,-0.50875 m 12.2625,3.1075 c 0,0 2.1575,-0.4325 2.25375,1.89 m -27.00875,10.9125 c 0,0 0.68375,-0.83125 2.25625,-0.83125 0,0 0.6725,-0.0312 1.2125,-0.0312 m 3.8025,3.585 c -0.165,0.6325 -0.17,1.365 -0.6675,2.675 0,0 -0.255,0.6875 -0.55125,1.2925 -0.21375,0.7425 -1.96125,2.26 -1.96125,2.26 m 6.23875,-18.26375 c 0,0 2.69875,0.60875 3.28875,-1.3175 m -17.515,1.645 c 0,0 -0.14625,1.23375 0.2175,2.9775 0.3625,1.7425 0.87125,3.34 0.87125,3.34 m 7.05625,0.30625 c 0,0 2.7775,1.09 3.1975,2.40875 m 6.92,-3.70625 c 0,0 1.18625,-3.65875 1.9275,-3.955" />
    <g
       id="g1252"
       transform="matrix(1.25,0,0,-1.25,372.25747,604.83494)"
       style="fill:#008080">
      <path
         d="M 0,0 -0.254,-0.214"
         style="fill:#008080;stroke:#ffffff;stroke-width:0.26300001;stroke-linecap:round;stroke-linejoin:round;stroke-miterlimit:4;stroke-dasharray:none;stroke-opacity:1"
         id="path1254"
         inkscape:connector-curvature="0" />
    </g>
    <g
       transform="matrix(1.25,0,0,-1.25,170.84397,919.05232)"
       id="g1256">
      <g
         id="g1258"
         clip-path="url(#clipPath1260)">
        <g
           id="g1264"
           transform="translate(200.3952,246.1068)">
          <path
             d="m 0,0 c 0,-0.196 0.157,-0.372 0.372,-0.372 l 1.801,0 c 0.196,0 0.372,0.176 0.372,0.372 l 0,4.6 2.447,0 c 2.388,0 4.365,1.977 4.365,4.405 0,2.369 -1.977,4.326 -4.385,4.326 l -4.6,0 C 0.157,13.331 0,13.155 0,12.959 L 0,0 Z m 2.545,6.989 0,3.934 2.271,0 c 1.096,0 2.016,-0.822 2.016,-1.899 0,-1.154 -0.92,-2.035 -2.016,-2.035 l -2.271,0 z m 8.3,-0.529 c 0,-3.915 3.113,-7.028 7.028,-7.028 3.915,0 7.047,3.113 7.047,7.028 0,3.915 -3.132,7.067 -7.047,7.067 -3.915,0 -7.028,-3.152 -7.028,-7.067 m 2.545,0 c 0,2.467 2.016,4.522 4.483,4.522 2.466,0 4.502,-2.055 4.502,-4.522 0,-2.467 -2.036,-4.483 -4.502,-4.483 -2.467,0 -4.483,2.016 -4.483,4.483 M 26.975,0 c 0,-0.196 0.157,-0.372 0.372,-0.372 l 7.165,0 c 0.215,0 0.372,0.176 0.372,0.372 l 0,1.605 c 0,0.196 -0.157,0.372 -0.372,0.372 l -4.992,0 0,10.982 c 0,0.196 -0.176,0.372 -0.372,0.372 l -1.801,0 c -0.215,0 -0.372,-0.176 -0.372,-0.372 L 26.975,0 Z m 10.473,0 c 0,-0.196 0.176,-0.372 0.372,-0.372 l 1.821,0 c 0.195,0 0.372,0.176 0.372,0.372 l 0,12.959 c 0,0.196 -0.177,0.372 -0.372,0.372 l -1.821,0 c -0.196,0 -0.372,-0.176 -0.372,-0.372 L 37.448,0 Z m 8.398,0 c 0,-0.196 0.176,-0.372 0.372,-0.372 l 1.82,0 c 0.196,0 0.372,0.176 0.372,0.372 l 0,10.982 2.995,0 c 0.216,0 0.372,0.176 0.372,0.372 l 0,1.605 c 0,0.196 -0.156,0.372 -0.372,0.372 l -8.554,0 c -0.216,0 -0.372,-0.176 -0.372,-0.372 l 0,-1.605 c 0,-0.196 0.156,-0.372 0.372,-0.372 l 2.995,0 0,-10.982 z m 8.163,0 c 0,-0.196 0.157,-0.372 0.372,-0.372 l 7.967,0 c 0.216,0 0.372,0.176 0.372,0.372 l 0,1.605 c 0,0.196 -0.156,0.372 -0.372,0.372 l -5.794,0 0,3.426 4.835,0 c 0.196,0 0.372,0.157 0.372,0.372 l 0,1.625 c 0,0.195 -0.176,0.372 -0.372,0.372 l -4.835,0 0,3.21 5.794,0 c 0.216,0 0.372,0.176 0.372,0.372 l 0,1.605 c 0,0.196 -0.156,0.372 -0.372,0.372 l -7.967,0 c -0.215,0 -0.372,-0.176 -0.372,-0.372 L 54.009,0 Z m 10.708,6.46 c 0,-3.915 3.152,-7.028 7.067,-7.028 1.742,0 3.426,0.607 4.757,1.899 0.137,0.137 0.176,0.392 0.019,0.529 l -1.213,1.253 c -0.118,0.117 -0.333,0.137 -0.49,0 -0.822,-0.666 -1.82,-1.116 -2.995,-1.116 -2.506,0 -4.385,2.075 -4.385,4.522 0,2.466 1.86,4.561 4.365,4.561 1.097,0 2.193,-0.431 3.015,-1.155 0.157,-0.157 0.353,-0.157 0.49,0 l 1.194,1.233 c 0.156,0.157 0.156,0.392 -0.02,0.548 -1.331,1.195 -2.76,1.821 -4.737,1.821 -3.915,0 -7.067,-3.152 -7.067,-7.067 M 79.144,0 c 0,-0.196 0.176,-0.372 0.372,-0.372 l 1.781,0 c 0.216,0 0.372,0.176 0.372,0.372 l 0,8.418 0.02,0 8.183,-8.986 0.47,0 c 0.195,0 0.371,0.157 0.371,0.353 l 0,13.174 c 0,0.196 -0.176,0.372 -0.371,0.372 l -1.801,0 c -0.216,0 -0.372,-0.176 -0.372,-0.372 l 0,-8.085 -0.02,0 -8.144,8.653 -0.489,0 c -0.196,0 -0.372,-0.157 -0.372,-0.352 L 79.144,0 Z M 94.08,0 c 0,-0.196 0.177,-0.372 0.372,-0.372 l 1.821,0 c 0.196,0 0.372,0.176 0.372,0.372 l 0,12.959 c 0,0.196 -0.176,0.372 -0.372,0.372 l -1.821,0 c -0.195,0 -0.372,-0.176 -0.372,-0.372 L 94.08,0 Z m 5.129,6.46 c 0,-3.915 3.152,-7.028 7.067,-7.028 1.742,0 3.426,0.607 4.757,1.899 0.137,0.137 0.176,0.392 0.019,0.529 l -1.213,1.253 c -0.118,0.117 -0.333,0.137 -0.49,0 -0.822,-0.666 -1.82,-1.116 -2.995,-1.116 -2.505,0 -4.385,2.075 -4.385,4.522 0,2.466 1.86,4.561 4.366,4.561 1.096,0 2.192,-0.431 3.014,-1.155 0.157,-0.157 0.353,-0.157 0.49,0 l 1.194,1.233 c 0.156,0.157 0.156,0.392 -0.02,0.548 -1.331,1.195 -2.76,1.821 -4.737,1.821 -3.915,0 -7.067,-3.152 -7.067,-7.067 m 13.644,0 c 0,-3.915 3.113,-7.028 7.028,-7.028 3.915,0 7.047,3.113 7.047,7.028 0,3.915 -3.132,7.067 -7.047,7.067 -3.915,0 -7.028,-3.152 -7.028,-7.067 m 2.545,0 c 0,2.467 2.016,4.522 4.483,4.522 2.467,0 4.502,-2.055 4.502,-4.522 0,-2.467 -2.035,-4.483 -4.502,-4.483 -2.467,0 -4.483,2.016 -4.483,4.483"
             style="fill:#ffffff;fill-opacity:1;fill-rule:nonzero;stroke:none"
             id="path1266"
             inkscape:connector-curvature="0" />
        </g>
        <g
           id="g1268"
           transform="translate(334.7094,246.5821)">
          <path
             d="m 0,0 c -0.04,-0.276 0.1,-0.453 0.38,-0.453 l 1.302,0 c 0.16,0 0.34,0.138 0.36,0.276 l 1.441,8.809 0.081,0 3.623,-9.066 c 0.04,-0.118 0.18,-0.216 0.341,-0.216 l 0.36,0 c 0.18,0 0.3,0.098 0.34,0.216 l 3.604,9.066 0.06,0 1.481,-8.809 c 0.04,-0.138 0.201,-0.276 0.381,-0.276 l 1.301,0 c 0.28,0 0.42,0.177 0.36,0.453 l -2.462,13.244 c -0.04,0.158 -0.2,0.296 -0.36,0.296 l -0.321,0 c -0.14,0 -0.3,-0.099 -0.34,-0.217 L 7.768,3.252 l -0.08,0 -4.184,10.071 C 3.463,13.441 3.283,13.54 3.163,13.54 l -0.32,0 c -0.16,0 -0.32,-0.138 -0.361,-0.296 L 0,0 Z m 18.358,-0.079 c 0,-0.197 0.18,-0.374 0.381,-0.374 l 1.321,0 c 0.2,0 0.38,0.177 0.38,0.374 l 0,13.047 c 0,0.197 -0.18,0.375 -0.38,0.375 l -1.321,0 c -0.201,0 -0.381,-0.178 -0.381,-0.375 l 0,-13.047 z m 5.966,0 c 0,-0.197 0.16,-0.374 0.38,-0.374 l 7.127,0 c 0.221,0 0.381,0.177 0.381,0.374 l 0,1.084 c 0,0.197 -0.16,0.375 -0.381,0.375 l -5.425,0 0,11.588 c 0,0.197 -0.18,0.375 -0.38,0.375 l -1.322,0 c -0.22,0 -0.38,-0.178 -0.38,-0.375 l 0,-13.047 z m 9.449,-0.374 1.261,0 c 0.241,0 0.401,0.157 0.461,0.295 0.4,0.907 0.821,1.794 1.221,2.7 l 6.547,0 1.241,-2.7 c 0.08,-0.177 0.22,-0.295 0.46,-0.295 l 1.262,0 c 0.3,0 0.46,0.256 0.34,0.512 L 40.46,13.323 c -0.06,0.118 -0.24,0.217 -0.34,0.217 l -0.201,0 c -0.1,0 -0.28,-0.099 -0.34,-0.217 L 33.433,0.059 c -0.12,-0.256 0.04,-0.512 0.34,-0.512 m 3.724,4.69 2.442,5.4 0.1,0 2.463,-5.4 -5.005,0 z m 11.071,-4.316 c 0,-0.197 0.18,-0.374 0.38,-0.374 l 1.261,0 c 0.221,0 0.381,0.177 0.381,0.374 l 0,9.598 0.02,0 8.688,-10.169 0.521,0 c 0.2,0 0.38,0.157 0.38,0.354 l 0,13.264 c 0,0.197 -0.18,0.375 -0.38,0.375 l -1.281,0 c -0.22,0 -0.381,-0.178 -0.381,-0.375 l 0,-9.322 -0.02,0 -8.688,9.894 -0.501,0 c -0.2,0 -0.38,-0.158 -0.38,-0.355 l 0,-13.264 z m 14.494,6.504 c 0,-3.942 3.183,-7.075 7.187,-7.075 4.004,0 7.208,3.133 7.208,7.075 0,3.942 -3.204,7.115 -7.208,7.115 -4.004,0 -7.187,-3.173 -7.187,-7.115 m 2.002,0 c 0,2.799 2.342,5.144 5.185,5.144 2.863,0 5.206,-2.345 5.206,-5.144 0,-2.818 -2.343,-5.105 -5.206,-5.105 -2.843,0 -5.185,2.287 -5.185,5.105"
             style="fill:#ffffff;fill-opacity:1;fill-rule:nonzero;stroke:none"
             id="path1270"
             inkscape:connector-curvature="0" />
        </g>
        <g
           id="g1272"
           transform="translate(420.4541,246.1388)">
          <path
             d="m 0,0 7.023,0 c 0.222,0 0.384,0.159 0.384,0.358 l 0,0.854 c 0,0.218 -0.162,0.377 -0.384,0.377 l -2.22,0 0,11.544 c 0,0.198 -0.161,0.377 -0.363,0.377 l -0.989,0 -3.007,-2.682 C 0.363,10.749 0.323,10.59 0.383,10.431 L 0.626,9.735 C 0.686,9.557 0.888,9.517 1.07,9.596 l 1.756,0.874 0,-8.881 -2.826,0 c -0.222,0 -0.383,-0.159 -0.383,-0.377 l 0,-0.854 C -0.383,0.159 -0.222,0 0,0 m 9.687,3.616 c 0,-2.166 1.796,-3.815 4.622,-3.815 2.926,0 4.702,1.649 4.702,3.815 0,1.709 -1.513,2.901 -2.442,3.318 l 0,0.079 c 0.868,0.438 2.079,1.53 2.079,3.06 0,2.186 -1.837,3.636 -4.319,3.636 -2.422,0 -4.279,-1.45 -4.279,-3.636 0,-1.55 1.211,-2.642 2.079,-3.079 l 0,-0.06 C 11.382,6.596 9.687,5.345 9.687,3.616 m 4.662,4.252 c -1.574,0.238 -2.26,1.053 -2.26,2.126 0,1.212 0.989,2.086 2.2,2.086 1.332,0 2.321,-0.874 2.321,-2.086 0,-1.053 -0.707,-1.908 -2.261,-2.126 M 11.786,3.576 c 0,1.053 0.928,2.146 2.563,2.384 1.635,-0.238 2.563,-1.331 2.563,-2.384 0,-1.331 -1.15,-2.165 -2.583,-2.165 -1.332,0 -2.543,0.854 -2.543,2.165 m 9.304,1.788 c 0,-3.059 1.534,-5.563 4.763,-5.563 2.442,0 4.5,2.047 4.5,4.55 0,2.742 -2.078,4.311 -4.218,4.311 -1.352,0 -2.522,-0.635 -2.684,-0.735 0.666,2.444 3.875,4.093 4.804,4.391 0.383,0.119 0.464,0.338 0.363,0.576 l -0.343,0.815 c -0.081,0.219 -0.263,0.318 -0.505,0.238 -1.857,-0.695 -6.68,-3.039 -6.68,-8.583 m 4.743,-3.775 c -2.2,0 -2.947,2.265 -2.785,3.934 0.121,0.358 1.17,1.51 2.764,1.51 1.494,0 2.685,-1.212 2.685,-2.702 0,-1.49 -1.171,-2.742 -2.664,-2.742 M 31.887,1.57 c 0.444,-0.517 1.635,-1.769 4.137,-1.769 2.785,0 4.561,1.629 4.561,3.795 0,1.709 -1.493,2.901 -2.442,3.298 l 0,0.06 c 0.909,0.417 2.079,1.589 2.079,3.119 0,2.225 -1.877,3.636 -4.218,3.636 -2.2,0 -3.734,-1.748 -3.734,-1.748 -0.141,-0.14 -0.161,-0.378 0,-0.517 l 0.747,-0.656 c 0.182,-0.159 0.404,-0.119 0.525,0.04 0.404,0.437 1.13,1.113 2.341,1.113 1.191,0 2.301,-0.835 2.301,-2.166 0,-1.172 -0.949,-2.126 -2.846,-2.126 l -1.13,0 c -0.283,0 -0.404,-0.119 -0.404,-0.417 l 0,-0.854 c 0,-0.279 0.162,-0.418 0.384,-0.418 l 1.13,0 c 2.159,0 3.189,-1.132 3.189,-2.324 0,-1.331 -1.211,-2.146 -2.523,-2.146 -1.494,0 -2.624,1.073 -2.745,1.232 -0.161,0.179 -0.343,0.199 -0.545,0.04 L 31.907,2.046 C 31.766,1.927 31.766,1.709 31.887,1.57"
             style="fill:#ffffff;fill-opacity:1;fill-rule:nonzero;stroke:none"
             id="path1274"
             inkscape:connector-curvature="0" />
        </g>
      </g>
    </g>
  </g>
</svg>
